<svg width="0" height="0" class="hidden">
  <symbol viewBox="0 0 1300 955" fill="none" xmlns="http://www.w3.org/2000/svg" id="star1">
    <path fill-rule="evenodd" clip-rule="evenodd" d="M1151.44 727.52C1151.82 727.623 1152.23 727.569 1152.58 727.371C1152.92 727.172 1153.17 726.844 1153.28 726.46C1153.38 726.075 1153.32 725.666 1153.13 725.322C1152.93 724.977 1152.6 724.726 1152.21 724.623C1151.83 724.52 1151.42 724.574 1151.08 724.772C1150.73 724.971 1150.48 725.299 1150.38 725.683C1150.27 726.068 1150.33 726.477 1150.53 726.821C1150.73 727.166 1151.05 727.417 1151.44 727.52Z" fill="white"/>
    <path fill-rule="evenodd" clip-rule="evenodd" d="M759.974 681.639C760.261 681.715 760.564 681.706 760.845 681.61C761.126 681.515 761.372 681.338 761.552 681.103C761.733 680.868 761.84 680.584 761.859 680.288C761.879 679.992 761.81 679.697 761.661 679.44C761.513 679.183 761.292 678.976 761.026 678.845C760.76 678.713 760.461 678.664 760.167 678.703C759.872 678.741 759.597 678.866 759.373 679.062C759.15 679.258 758.99 679.515 758.914 679.802C758.811 680.186 758.865 680.595 759.063 680.94C759.262 681.284 759.59 681.536 759.974 681.639Z" fill="white"/>
    <path d="M799.657 168.422C799.514 168.955 798.966 169.272 798.433 169.129C797.899 168.986 797.583 168.438 797.726 167.904C797.868 167.371 798.417 167.054 798.95 167.197C799.484 167.34 799.8 167.888 799.657 168.422Z" fill="white"/>
    <path fill-rule="evenodd" clip-rule="evenodd" d="M57.749 464.49C58.0052 464.559 58.2782 464.523 58.5079 464.39C58.7376 464.258 58.9052 464.039 58.9738 463.783C59.0425 463.527 59.0065 463.254 58.8739 463.024C58.7413 462.795 58.5228 462.627 58.2667 462.558C58.0105 462.49 57.7376 462.526 57.5079 462.658C57.2782 462.791 57.1106 463.009 57.042 463.265C56.9733 463.522 57.0092 463.795 57.1419 464.024C57.2745 464.254 57.4928 464.422 57.749 464.49Z" fill="white"/>
    <path d="M768.772 677.784C768.629 678.318 768.08 678.634 767.547 678.491C767.013 678.348 766.697 677.8 766.84 677.267C766.983 676.733 767.531 676.417 768.064 676.56C768.598 676.703 768.915 677.251 768.772 677.784Z" fill="white"/>
    <path d="M103.582 436.395C103.439 436.929 102.891 437.245 102.358 437.102C101.824 436.96 101.507 436.411 101.65 435.878C101.793 435.344 102.342 435.028 102.875 435.171C103.409 435.314 103.725 435.862 103.582 436.395Z" fill="white"/>
    <path fill-rule="evenodd" clip-rule="evenodd" d="M132.837 427.67C133.093 427.738 133.366 427.703 133.596 427.57C133.825 427.437 133.993 427.219 134.062 426.963C134.13 426.707 134.094 426.434 133.962 426.204C133.829 425.974 133.611 425.807 133.355 425.738C133.098 425.669 132.825 425.705 132.596 425.838C132.366 425.971 132.198 426.189 132.13 426.445C132.061 426.701 132.097 426.974 132.23 427.204C132.362 427.434 132.581 427.601 132.837 427.67Z" fill="white"/>
    <path fill-rule="evenodd" clip-rule="evenodd" d="M80.673 471.668C80.864 471.719 81.066 471.712 81.2532 471.649C81.4405 471.585 81.6047 471.467 81.7251 471.311C81.8454 471.154 81.9167 470.965 81.9296 470.767C81.9425 470.57 81.8966 470.373 81.7977 470.202C81.6989 470.031 81.5514 469.892 81.374 469.805C81.1966 469.718 80.9974 469.685 80.8013 469.71C80.6052 469.736 80.4212 469.82 80.2725 469.95C80.1238 470.08 80.0171 470.252 79.9659 470.443C79.9298 470.57 79.9196 470.703 79.9358 470.834C79.952 470.964 79.9943 471.091 80.0602 471.205C80.1262 471.319 80.2145 471.419 80.3197 471.498C80.425 471.578 80.5451 471.636 80.673 471.668Z" fill="white"/>
    <path fill-rule="evenodd" clip-rule="evenodd" d="M245.467 509.613C245.658 509.664 245.86 509.657 246.047 509.594C246.234 509.53 246.399 509.412 246.519 509.255C246.639 509.099 246.711 508.91 246.724 508.712C246.736 508.515 246.691 508.318 246.592 508.147C246.493 507.975 246.345 507.837 246.168 507.75C245.991 507.662 245.791 507.629 245.595 507.655C245.399 507.681 245.215 507.765 245.066 507.895C244.918 508.025 244.811 508.197 244.76 508.388C244.691 508.644 244.727 508.917 244.86 509.147C244.992 509.376 245.211 509.544 245.467 509.613Z" fill="white"/>
    <path fill-rule="evenodd" clip-rule="evenodd" d="M71.5127 482.672C71.787 482.714 72.063 482.666 72.2886 482.536C72.5142 482.405 72.6738 482.202 72.7375 481.965C72.8011 481.727 72.7644 481.472 72.6342 481.246C72.5039 481.02 72.2891 480.84 72.0303 480.74C71.756 480.698 71.4801 480.746 71.2545 480.876C71.0289 481.007 70.8693 481.21 70.8056 481.447C70.742 481.685 70.7787 481.94 70.9089 482.166C71.0392 482.392 71.2539 482.572 71.5127 482.672Z" fill="white"/>
    <path fill-rule="evenodd" clip-rule="evenodd" d="M1246.03 395.696C1246.22 395.75 1246.42 395.746 1246.61 395.684C1246.8 395.622 1246.97 395.505 1247.09 395.348C1247.21 395.191 1247.29 395.001 1247.3 394.803C1247.31 394.604 1247.27 394.406 1247.17 394.234C1247.07 394.061 1246.92 393.922 1246.74 393.835C1246.56 393.748 1246.36 393.716 1246.16 393.743C1245.97 393.771 1245.78 393.856 1245.63 393.989C1245.49 394.122 1245.38 394.296 1245.33 394.489C1245.27 394.741 1245.31 395.008 1245.44 395.234C1245.57 395.459 1245.78 395.625 1246.03 395.696Z" fill="white"/>
    <path fill-rule="evenodd" clip-rule="evenodd" d="M54.7983 481.299C54.9264 481.334 55.0629 481.316 55.1777 481.249C55.2926 481.183 55.3764 481.074 55.4107 480.946C55.4451 480.818 55.4271 480.681 55.3607 480.566C55.2944 480.451 55.1852 480.368 55.0571 480.333C54.929 480.299 54.7926 480.317 54.6777 480.383C54.5629 480.45 54.4791 480.559 54.4448 480.687C54.4105 480.815 54.4284 480.951 54.4947 481.066C54.561 481.181 54.6702 481.265 54.7983 481.299Z" fill="white"/>
    <path d="M1237.55 388.765C1237.48 389.031 1237.2 389.19 1236.94 389.118C1236.67 389.047 1236.51 388.773 1236.58 388.506C1236.65 388.239 1236.93 388.081 1237.2 388.152C1237.46 388.224 1237.62 388.498 1237.55 388.765Z" fill="white"/>
    <path fill-rule="evenodd" clip-rule="evenodd" d="M753.435 709.909C753.563 709.944 753.7 709.926 753.814 709.859C753.929 709.793 754.013 709.684 754.047 709.556C754.082 709.428 754.064 709.291 753.997 709.176C753.931 709.062 753.822 708.978 753.694 708.943C753.566 708.909 753.429 708.927 753.315 708.993C753.2 709.06 753.116 709.169 753.082 709.297C753.047 709.425 753.065 709.562 753.132 709.676C753.198 709.791 753.307 709.875 753.435 709.909Z" fill="white"/>
    <path d="M1184.25 730.619C1184.18 730.886 1183.91 731.044 1183.64 730.973C1183.38 730.901 1183.22 730.627 1183.29 730.361C1183.36 730.094 1183.63 729.936 1183.9 730.007C1184.17 730.079 1184.33 730.353 1184.25 730.619Z" fill="white"/>
    <path fill-rule="evenodd" clip-rule="evenodd" d="M1151.65 715.153C1151.74 715.178 1151.84 715.175 1151.94 715.143C1152.03 715.112 1152.11 715.053 1152.17 714.974C1152.23 714.896 1152.27 714.801 1152.27 714.703C1152.28 714.604 1152.26 714.506 1152.21 714.42C1152.16 714.334 1152.09 714.265 1152 714.221C1151.91 714.178 1151.81 714.161 1151.71 714.174C1151.61 714.187 1151.52 714.229 1151.45 714.294C1151.37 714.359 1151.32 714.445 1151.29 714.54C1151.26 714.669 1151.28 714.805 1151.34 714.92C1151.41 715.035 1151.52 715.118 1151.65 715.153Z" fill="white"/>
    <path fill-rule="evenodd" clip-rule="evenodd" d="M760.821 674.618C760.916 674.644 761.017 674.641 761.111 674.609C761.205 674.577 761.287 674.518 761.347 674.44C761.407 674.361 761.443 674.267 761.449 674.168C761.456 674.069 761.433 673.971 761.383 673.885C761.334 673.8 761.26 673.731 761.171 673.687C761.083 673.643 760.983 673.627 760.885 673.64C760.787 673.653 760.695 673.694 760.62 673.759C760.546 673.825 760.493 673.91 760.467 674.006C760.433 674.134 760.451 674.271 760.517 674.385C760.584 674.5 760.693 674.584 760.821 674.618Z" fill="white"/>
    <path d="M65.9156 476.514C65.8441 476.78 65.57 476.939 65.3032 476.867C65.0365 476.796 64.8782 476.521 64.9497 476.255C65.0212 475.988 65.2953 475.83 65.5621 475.901C65.8288 475.973 65.9871 476.247 65.9156 476.514Z" fill="white"/>
    <path d="M762.137 683.299C761.893 683.439 761.582 683.356 761.442 683.113C761.302 682.87 761.385 682.559 761.628 682.419C761.871 682.278 762.182 682.362 762.323 682.605C762.463 682.848 762.38 683.159 762.137 683.299Z" fill="white"/>
    <path fill-rule="evenodd" clip-rule="evenodd" d="M48.3303 476.46C48.522 476.512 48.7245 476.505 48.9123 476.441C49.1 476.377 49.2645 476.258 49.3846 476.1C49.5048 475.942 49.5753 475.752 49.5871 475.554C49.599 475.356 49.5517 475.159 49.4512 474.988C49.3507 474.817 49.2016 474.679 49.0228 474.593C48.8441 474.507 48.6437 474.476 48.4473 474.504C48.2509 474.533 48.0673 474.618 47.9198 474.751C47.7724 474.884 47.6677 475.058 47.6193 475.25C47.5551 475.505 47.5937 475.774 47.7267 476.001C47.8598 476.227 48.0766 476.392 48.3303 476.46Z" fill="white"/>
    <path fill-rule="evenodd" clip-rule="evenodd" d="M745.95 693.41C746.225 693.452 746.501 693.404 746.726 693.274C746.952 693.144 747.111 692.941 747.175 692.703C747.239 692.465 747.202 692.21 747.072 691.984C746.941 691.759 746.727 691.579 746.468 691.478C746.194 691.436 745.918 691.484 745.692 691.614C745.466 691.745 745.307 691.948 745.243 692.185C745.179 692.423 745.216 692.678 745.346 692.904C745.477 693.13 745.691 693.31 745.95 693.41Z" fill="white"/>
    <path fill-rule="evenodd" clip-rule="evenodd" d="M757.232 686.08C757.423 686.131 757.625 686.125 757.812 686.061C757.999 685.998 758.163 685.88 758.284 685.723C758.404 685.566 758.475 685.377 758.488 685.18C758.501 684.982 758.455 684.785 758.357 684.614C758.258 684.443 758.11 684.305 757.933 684.217C757.755 684.13 757.556 684.097 757.36 684.123C757.164 684.149 756.98 684.232 756.831 684.362C756.682 684.493 756.576 684.664 756.525 684.855C756.456 685.112 756.492 685.385 756.624 685.614C756.757 685.844 756.975 686.011 757.232 686.08Z" fill="white"/>
    <path d="M1179.09 742.176C1178.94 742.709 1178.4 743.026 1177.86 742.883C1177.33 742.74 1177.01 742.192 1177.16 741.658C1177.3 741.125 1177.85 740.808 1178.38 740.951C1178.91 741.094 1179.23 741.642 1179.09 742.176Z" fill="white"/>
    <path fill-rule="evenodd" clip-rule="evenodd" d="M195.587 446.554C195.874 446.631 196.169 446.65 196.436 446.607C196.703 446.565 196.929 446.464 197.086 446.317C197.243 446.17 197.324 445.983 197.318 445.781C197.312 445.578 197.22 445.369 197.054 445.18C196.887 444.991 196.654 444.829 196.383 444.717C196.112 444.604 195.815 444.545 195.531 444.548C195.247 444.55 194.987 444.613 194.785 444.729C194.584 444.845 194.449 445.009 194.397 445.2C194.329 445.456 194.416 445.743 194.639 445.997C194.862 446.251 195.203 446.451 195.587 446.554Z" fill="white"/>
    <path fill-rule="evenodd" clip-rule="evenodd" d="M126.391 378.32C126.647 378.388 126.92 378.352 127.15 378.22C127.379 378.087 127.547 377.869 127.615 377.613C127.684 377.356 127.648 377.084 127.516 376.854C127.383 376.624 127.165 376.457 126.908 376.388C126.652 376.319 126.379 376.355 126.149 376.488C125.92 376.62 125.752 376.839 125.684 377.095C125.615 377.351 125.651 377.624 125.783 377.854C125.916 378.083 126.135 378.251 126.391 378.32Z" fill="white"/>
    <path fill-rule="evenodd" clip-rule="evenodd" d="M1122.48 733.219C1122.75 733.261 1123.03 733.213 1123.25 733.082C1123.48 732.952 1123.64 732.749 1123.7 732.512C1123.77 732.274 1123.73 732.018 1123.6 731.793C1123.47 731.567 1123.25 731.387 1122.99 731.287C1122.72 731.244 1122.44 731.293 1122.22 731.423C1121.99 731.553 1121.83 731.756 1121.77 731.994C1121.71 732.232 1121.74 732.487 1121.87 732.713C1122 732.938 1122.22 733.118 1122.48 733.219Z" fill="white"/>
    <path fill-rule="evenodd" clip-rule="evenodd" d="M212.561 446.961C212.817 447.03 213.09 446.994 213.319 446.861C213.549 446.729 213.717 446.51 213.785 446.254C213.854 445.998 213.818 445.725 213.685 445.495C213.553 445.266 213.334 445.098 213.078 445.029C212.822 444.961 212.549 444.997 212.319 445.129C212.09 445.262 211.922 445.48 211.853 445.736C211.785 445.993 211.821 446.266 211.953 446.495C212.086 446.725 212.304 446.893 212.561 446.961Z" fill="white"/>
    <path fill-rule="evenodd" clip-rule="evenodd" d="M756.548 653.803C756.739 653.858 756.942 653.854 757.132 653.792C757.321 653.73 757.487 653.613 757.609 653.456C757.732 653.299 757.804 653.109 757.818 652.91C757.832 652.712 757.786 652.514 757.687 652.341C757.587 652.169 757.438 652.03 757.26 651.943C757.081 651.855 756.88 651.823 756.683 651.851C756.486 651.878 756.301 651.964 756.153 652.097C756.005 652.23 755.9 652.404 755.851 652.597C755.783 652.849 755.819 653.118 755.949 653.344C756.08 653.57 756.295 653.736 756.548 653.803Z" fill="white"/>
    <path d="M479.839 520.896C478.977 521.394 477.875 521.099 477.377 520.237C476.88 519.375 477.175 518.272 478.037 517.775C478.899 517.277 480.001 517.573 480.499 518.435C480.997 519.297 480.701 520.399 479.839 520.896Z" fill="white"/>
    <path d="M81.5217 623.046C81.3787 623.579 80.8303 623.896 80.2969 623.753C79.7634 623.61 79.4469 623.061 79.5898 622.528C79.7328 621.995 80.281 621.678 80.8145 621.821C81.348 621.964 81.6646 622.512 81.5217 623.046Z" fill="white"/>
    <path d="M296.772 708.149C295.91 708.647 294.807 708.352 294.31 707.49C293.812 706.628 294.107 705.525 294.969 705.028C295.831 704.53 296.934 704.825 297.431 705.687C297.929 706.549 297.634 707.652 296.772 708.149Z" fill="white"/>
    <path fill-rule="evenodd" clip-rule="evenodd" d="M496.874 488.979C497.16 489.055 497.463 489.045 497.744 488.95C498.025 488.855 498.272 488.678 498.452 488.443C498.633 488.207 498.739 487.924 498.759 487.628C498.778 487.332 498.709 487.037 498.561 486.78C498.413 486.523 498.192 486.316 497.925 486.184C497.659 486.053 497.36 486.004 497.066 486.042C496.772 486.081 496.496 486.206 496.273 486.402C496.05 486.597 495.89 486.855 495.813 487.141C495.71 487.526 495.764 487.935 495.963 488.28C496.162 488.624 496.49 488.876 496.874 488.979Z" fill="white"/>
    <path fill-rule="evenodd" clip-rule="evenodd" d="M314.52 456.681C315.093 456.835 315.699 456.815 316.26 456.624C316.822 456.433 317.315 456.08 317.676 455.61C318.037 455.139 318.251 454.572 318.29 453.98C318.328 453.388 318.191 452.797 317.894 452.283C317.598 451.77 317.155 451.355 316.623 451.093C316.091 450.83 315.493 450.732 314.905 450.809C314.316 450.887 313.764 451.137 313.318 451.528C312.872 451.919 312.552 452.434 312.398 453.007C312.192 453.776 312.3 454.594 312.698 455.283C313.096 455.973 313.751 456.475 314.52 456.681Z" fill="white"/>
    <path d="M195.284 615.305C194.422 615.803 193.32 615.507 192.822 614.645C192.325 613.783 192.62 612.681 193.482 612.183C194.344 611.686 195.446 611.981 195.944 612.843C196.442 613.705 196.146 614.807 195.284 615.305Z" fill="white"/>
    <path fill-rule="evenodd" clip-rule="evenodd" d="M205.673 511.373C206.053 511.471 206.453 511.456 206.824 511.328C207.196 511.2 207.521 510.965 207.76 510.654C207.999 510.342 208.141 509.967 208.168 509.576C208.195 509.184 208.107 508.793 207.913 508.451C207.72 508.11 207.43 507.833 207.08 507.654C206.73 507.476 206.336 507.405 205.946 507.45C205.556 507.494 205.187 507.653 204.887 507.905C204.586 508.158 204.366 508.493 204.255 508.87C204.179 509.127 204.155 509.397 204.186 509.664C204.216 509.931 204.3 510.189 204.433 510.422C204.565 510.656 204.743 510.86 204.956 511.024C205.169 511.187 205.413 511.306 205.673 511.373Z" fill="white"/>
    <path fill-rule="evenodd" clip-rule="evenodd" d="M246.178 524.297C246.464 524.377 246.775 524.342 247.071 524.196C247.367 524.05 247.635 523.8 247.842 523.477C248.048 523.154 248.182 522.773 248.228 522.383C248.275 521.992 248.23 521.61 248.101 521.284C247.972 520.958 247.763 520.703 247.502 520.552C247.241 520.401 246.939 520.36 246.635 520.434C246.33 520.509 246.037 520.696 245.792 520.971C245.547 521.246 245.361 521.597 245.259 521.98C245.189 522.233 245.158 522.493 245.167 522.747C245.176 523 245.224 523.241 245.309 523.457C245.395 523.672 245.516 523.857 245.665 524.002C245.814 524.146 245.988 524.246 246.178 524.297Z" fill="white"/>
    <path fill-rule="evenodd" clip-rule="evenodd" d="M229.612 543.67C229.898 543.746 230.209 543.708 230.504 543.56C230.799 543.411 231.066 543.159 231.27 542.836C231.474 542.512 231.607 542.131 231.652 541.742C231.696 541.352 231.65 540.971 231.52 540.646C231.39 540.322 231.181 540.069 230.92 539.919C230.659 539.769 230.357 539.729 230.053 539.804C229.749 539.88 229.457 540.067 229.212 540.342C228.968 540.617 228.783 540.967 228.681 541.35C228.543 541.862 228.564 542.394 228.739 542.829C228.914 543.264 229.228 543.567 229.612 543.67Z" fill="white"/>
    <path fill-rule="evenodd" clip-rule="evenodd" d="M181.111 701.494C181.397 701.571 181.708 701.533 182.003 701.384C182.298 701.236 182.565 700.984 182.769 700.66C182.973 700.337 183.106 699.956 183.151 699.566C183.195 699.177 183.149 698.796 183.019 698.471C182.889 698.147 182.68 697.893 182.419 697.744C182.158 697.594 181.856 697.554 181.552 697.629C181.248 697.704 180.956 697.891 180.711 698.166C180.467 698.442 180.282 698.792 180.18 699.174C180.042 699.687 180.063 700.219 180.238 700.654C180.413 701.089 180.727 701.391 181.111 701.494Z" fill="white"/>
    <path fill-rule="evenodd" clip-rule="evenodd" d="M228.297 593.01C228.489 593.062 228.691 593.055 228.879 592.991C229.067 592.927 229.232 592.808 229.352 592.65C229.472 592.492 229.542 592.302 229.554 592.103C229.566 591.905 229.518 591.708 229.417 591.537C229.317 591.366 229.167 591.229 228.988 591.143C228.809 591.057 228.609 591.026 228.413 591.055C228.216 591.083 228.033 591.169 227.885 591.303C227.738 591.436 227.634 591.61 227.586 591.802C227.522 592.057 227.561 592.326 227.694 592.552C227.827 592.778 228.044 592.943 228.297 593.01Z" fill="white"/>
    <path d="M837.431 792.462C837.288 792.996 836.739 793.312 836.206 793.169C835.673 793.026 835.356 792.478 835.499 791.944C835.642 791.411 836.19 791.094 836.724 791.237C837.257 791.38 837.574 791.929 837.431 792.462Z" fill="white"/>
    <path fill-rule="evenodd" clip-rule="evenodd" d="M91.2719 590.459C91.4635 590.513 91.667 590.51 91.8564 590.448C92.0459 590.386 92.2126 590.27 92.3352 590.113C92.4578 589.956 92.5307 589.765 92.5445 589.567C92.5584 589.368 92.5126 589.17 92.413 588.997C92.3134 588.825 92.1645 588.686 91.9854 588.598C91.8064 588.511 91.6054 588.479 91.4081 588.507C91.2108 588.535 91.0263 588.62 90.8782 588.754C90.7301 588.887 90.6251 589.061 90.5768 589.255C90.5093 589.506 90.5447 589.775 90.6751 590.001C90.8055 590.226 91.0201 590.391 91.2719 590.459Z" fill="white"/>
    <path d="M218.186 429.833C218.043 430.367 217.494 430.683 216.961 430.54C216.427 430.398 216.111 429.849 216.254 429.316C216.397 428.782 216.945 428.466 217.479 428.609C218.012 428.752 218.329 429.3 218.186 429.833Z" fill="white"/>
    <path d="M187.332 374.979C187.189 375.512 186.641 375.829 186.107 375.686C185.574 375.543 185.257 374.994 185.4 374.461C185.543 373.928 186.092 373.611 186.625 373.754C187.159 373.897 187.475 374.445 187.332 374.979Z" fill="white"/>
    <path fill-rule="evenodd" clip-rule="evenodd" d="M156.006 391.432C156.197 391.483 156.391 391.505 156.564 391.494C156.737 391.483 156.881 391.441 156.978 391.373C157.075 391.304 157.12 391.212 157.108 391.108C157.096 391.005 157.027 390.894 156.91 390.79C156.793 390.686 156.633 390.594 156.451 390.525C156.268 390.457 156.072 390.414 155.885 390.403C155.699 390.393 155.532 390.414 155.404 390.465C155.277 390.516 155.195 390.594 155.169 390.69C155.152 390.753 155.161 390.823 155.193 390.894C155.226 390.966 155.283 391.038 155.361 391.107C155.438 391.176 155.535 391.24 155.646 391.296C155.757 391.351 155.879 391.398 156.006 391.432Z" fill="white"/>
    <path fill-rule="evenodd" clip-rule="evenodd" d="M160.921 402.066C161.017 402.092 161.118 402.088 161.212 402.057C161.305 402.025 161.387 401.966 161.447 401.887C161.508 401.809 161.543 401.714 161.55 401.616C161.556 401.517 161.533 401.419 161.484 401.333C161.434 401.247 161.361 401.178 161.272 401.135C161.183 401.091 161.084 401.074 160.986 401.087C160.888 401.1 160.796 401.142 160.721 401.207C160.647 401.272 160.593 401.358 160.568 401.454C160.534 401.582 160.552 401.718 160.618 401.833C160.684 401.948 160.793 402.032 160.921 402.066Z" fill="white"/>
    <path fill-rule="evenodd" clip-rule="evenodd" d="M217.893 533.282C217.988 533.311 218.096 533.283 218.205 533.2C218.313 533.117 218.416 532.985 218.501 532.819C218.586 532.653 218.649 532.461 218.682 532.268C218.715 532.074 218.716 531.889 218.686 531.734C218.655 531.579 218.594 531.462 218.511 531.399C218.427 531.335 218.325 531.327 218.216 531.376C218.108 531.425 217.999 531.528 217.903 531.673C217.807 531.818 217.728 531.997 217.677 532.189C217.642 532.315 217.62 532.443 217.612 532.567C217.604 532.69 217.61 532.806 217.63 532.908C217.65 533.009 217.684 533.095 217.729 533.159C217.774 533.224 217.83 533.265 217.893 533.282Z" fill="white"/>
    <path d="M189.131 532.13C188.269 532.628 187.167 532.333 186.669 531.471C186.171 530.609 186.467 529.506 187.329 529.009C188.191 528.511 189.293 528.806 189.791 529.668C190.288 530.53 189.993 531.633 189.131 532.13Z" fill="white"/>
    <path fill-rule="evenodd" clip-rule="evenodd" d="M97.8111 548.729C98.0976 548.806 98.4081 548.768 98.7033 548.62C98.9984 548.471 99.265 548.219 99.4692 547.896C99.6735 547.572 99.8062 547.191 99.8508 546.801C99.8953 546.412 99.8495 546.031 99.7193 545.706C99.589 545.382 99.3802 545.128 99.1191 544.979C98.858 544.829 98.5565 544.789 98.2525 544.864C97.9486 544.94 97.656 545.127 97.4116 545.402C97.1673 545.677 96.9822 546.027 96.8798 546.409C96.7425 546.922 96.7636 547.454 96.9382 547.889C97.1128 548.324 97.4268 548.627 97.8111 548.729Z" fill="white"/>
    <path fill-rule="evenodd" clip-rule="evenodd" d="M207.628 451.851C207.914 451.928 208.225 451.889 208.52 451.741C208.815 451.593 209.081 451.341 209.286 451.017C209.49 450.693 209.623 450.313 209.667 449.923C209.712 449.533 209.666 449.152 209.536 448.827C209.405 448.503 209.197 448.25 208.935 448.1C208.674 447.95 208.373 447.91 208.069 447.986C207.765 448.061 207.472 448.248 207.228 448.523C206.984 448.798 206.799 449.149 206.696 449.531C206.559 450.043 206.58 450.575 206.755 451.011C206.929 451.446 207.243 451.748 207.628 451.851Z" fill="white"/>
    <path fill-rule="evenodd" clip-rule="evenodd" d="M108.693 434.659C108.98 434.739 109.291 434.704 109.587 434.558C109.883 434.412 110.151 434.162 110.357 433.839C110.563 433.516 110.698 433.135 110.744 432.745C110.79 432.354 110.746 431.972 110.617 431.646C110.487 431.32 110.279 431.065 110.018 430.914C109.757 430.763 109.455 430.722 109.15 430.796C108.846 430.871 108.552 431.058 108.308 431.333C108.063 431.608 107.877 431.959 107.774 432.342C107.705 432.595 107.674 432.855 107.682 433.109C107.691 433.362 107.74 433.603 107.825 433.819C107.91 434.034 108.031 434.219 108.18 434.364C108.329 434.508 108.504 434.608 108.693 434.659Z" fill="white"/>
    <path fill-rule="evenodd" clip-rule="evenodd" d="M131.236 406.535C131.618 406.64 132.015 406.658 132.377 406.586C132.739 406.514 133.05 406.355 133.27 406.131C133.489 405.906 133.608 405.625 133.611 405.324C133.614 405.022 133.5 404.714 133.285 404.438C133.071 404.162 132.764 403.931 132.404 403.773C132.044 403.616 131.647 403.539 131.264 403.554C130.881 403.568 130.528 403.673 130.251 403.854C129.974 404.036 129.785 404.286 129.709 404.573C129.656 404.762 129.653 404.963 129.701 405.164C129.75 405.366 129.847 405.563 129.989 405.746C130.131 405.928 130.315 406.092 130.529 406.227C130.742 406.363 130.983 406.467 131.236 406.535Z" fill="white"/>
    <path fill-rule="evenodd" clip-rule="evenodd" d="M97.2984 492.687C97.5849 492.764 97.8954 492.726 98.1906 492.577C98.4857 492.429 98.7523 492.177 98.9565 491.853C99.1608 491.53 99.2936 491.149 99.3381 490.759C99.3826 490.37 99.3368 489.988 99.2066 489.664C99.0763 489.339 98.8675 489.086 98.6064 488.936C98.3453 488.787 98.0437 488.747 97.7397 488.822C97.4358 488.897 97.1432 489.084 96.8989 489.359C96.6545 489.634 96.4695 489.985 96.3671 490.367C96.2298 490.88 96.2508 491.412 96.4254 491.847C96.6001 492.282 96.9141 492.584 97.2984 492.687Z" fill="white"/>
  </symbol>
  <symbol viewBox="0 0 32 32" fill="none" xmlns="http://www.w3.org/2000/svg" id="close">
    <path d="M21 11L11 21M11 11L21 21" stroke="white" stroke-width="2" stroke-linecap="round" stroke-linejoin="round"/>
  </symbol>
  <symbol viewBox="0 0 100 100" fill="none" xmlns="http://www.w3.org/2000/svg" id="vk">
    <path d="M62.9375 93.75H37.0625C12.5844 93.75 6.25 87.4156 6.25 62.9375V37.0625C6.25 12.5844 12.5844 6.25 37.0625 6.25H62.9344C87.4156 6.25 93.75 12.5844 93.75 37.0625V62.9375C93.75 87.4156 87.4156 93.75 62.9375 93.75ZM37.0625 9.375C14.2906 9.375 9.375 14.2906 9.375 37.0625V62.9375C9.375 85.7094 14.2906 90.625 37.0625 90.625H62.9344C85.7063 90.625 90.6219 85.7094 90.6219 62.9375V37.0625C90.625 14.2906 85.7094 9.375 62.9375 9.375H37.0625Z" fill="white"/>
    <path d="M78.8094 71.4875H71.9719C69.4406 71.4875 68.1719 70.0719 66.0625 67.7282C65.2313 66.8063 64.2125 65.6719 62.8594 64.3157C59.1281 60.7188 57.5469 60.3563 56.9656 60.3563C56.9438 60.5094 56.925 60.7532 56.925 61.1344V67.2657C56.925 70.7688 54.35 71.4875 50.4781 71.4875C42.3656 71.4875 34.0906 66.5594 28.3406 58.3063C20.0594 46.6969 17.2688 37.2594 17.2688 34.7375C17.2688 32.5157 18.6938 31.2407 21.175 31.2407H28.0125C31.0125 31.2407 31.9281 33.1563 32.55 34.95C35.6281 43.9219 40.1656 50.6063 42.0531 51.9407C42.0688 51.7375 42.0813 51.4688 42.0813 51.1063V41.0375C41.9531 38.7594 41.1969 37.8219 40.5281 36.9969C39.9813 36.3219 39.3625 35.5563 39.3625 34.375C39.3625 32.8688 40.625 31.2407 42.6656 31.2407H53.4094C55.0156 31.2407 56.925 31.9469 56.925 35.3157V48.8625C56.925 48.925 56.9281 48.9813 56.9313 49.0344C57.2844 48.7907 57.7875 48.3313 58.5094 47.6125C63.1313 42.4407 66.5375 34.225 66.5719 34.1407C67.3875 32.2344 68.9125 31.2375 70.9938 31.2375H77.8313C79.3094 31.2375 80.3875 31.6813 81.0344 32.55C81.4656 33.1282 81.8781 34.1563 81.3969 35.7625C80.5156 39.8219 72.8438 50.7094 71.9688 51.9376C71.9031 52.0469 71.6375 52.4782 71.6031 52.625C71.6125 52.625 71.6688 52.7782 71.9281 53.1157C72.2438 53.55 73.0219 54.3125 73.775 55.0532C74.7063 55.9657 75.7594 57 76.5969 57.9907C80.2844 62.1375 82.0438 64.6219 82.6594 66.5344C83.1719 68.3032 82.7188 69.4157 82.2438 70.0438C81.7594 70.7063 80.7656 71.4875 78.8094 71.4875ZM57.1531 57.2282C58.5656 57.2282 60.6094 57.8063 65.0469 62.0844C66.4719 63.5094 67.5281 64.6813 68.3875 65.6375C70.4313 67.9157 70.9281 68.3625 71.9688 68.3625H78.8063C79.4531 68.3625 79.7156 68.2157 79.75 68.175C79.75 68.175 79.8281 67.9844 79.675 67.4563C79.1 65.6688 76.4688 62.5532 74.2406 60.0438C73.4375 59.0938 72.4594 58.1375 71.5906 57.2907C70.625 56.3469 69.8656 55.6 69.4313 54.9938C67.875 52.9907 68.4844 51.6438 69.375 50.2126C71.6906 46.9438 77.7156 37.9969 78.375 34.9875C78.4656 34.6688 78.4875 34.4938 78.4875 34.4094C78.4313 34.4157 78.2219 34.3688 77.8313 34.3688H70.9938C70.0594 34.3688 69.7219 34.7313 69.4563 35.3532C69.3188 35.6875 65.825 44.1219 60.7813 49.7625C59.175 51.3719 58.0406 52.3844 56.4281 52.3844C55.1625 52.3844 53.8 51.2813 53.8 48.8657V35.3188C53.8 34.7188 53.7281 34.4657 53.6938 34.3782C53.6594 34.3907 53.575 34.3719 53.4094 34.3688H42.6656C42.5125 34.4875 42.7813 34.8188 42.9594 35.0375C43.7813 36.0532 45.0188 37.5875 45.2063 40.9563L45.2094 51.1126C45.2094 52.3594 45.2094 55.2844 42.3781 55.2844C38.3688 55.2844 32.3813 44.0688 29.6 35.975C29.0438 34.3719 28.7844 34.3719 28.0156 34.3719H21.1781C20.5656 34.3719 20.3875 34.4907 20.3844 34.4907C20.3969 35.8375 22.3344 44.5032 30.8969 56.5094C36.0719 63.9375 43.3875 68.3657 50.4813 68.3657C53.8031 68.3657 53.8031 67.9063 53.8031 67.2688V61.1375C53.8031 59.2032 54.2 57.2282 57.1531 57.2282Z" fill="white"/>
  </symbol>
  <symbol viewBox="0 0 100 100" fill="none" xmlns="http://www.w3.org/2000/svg" id="twitter">
    <path d="M62.6875 93.5H36.8125C12.3344 93.5 6 87.1656 6 62.6875V36.8125C6 12.3344 12.3344 6 36.8125 6H62.6844C87.1656 6 93.5 12.3344 93.5 36.8125V62.6875C93.5 87.1656 87.1656 93.5 62.6875 93.5ZM36.8125 9.125C14.0406 9.125 9.125 14.0406 9.125 36.8125V62.6875C9.125 85.4594 14.0406 90.375 36.8125 90.375H62.6844C85.4563 90.375 90.3719 85.4594 90.3719 62.6875V36.8125C90.375 14.0406 85.4594 9.125 62.6875 9.125H36.8125Z" fill="white"/>
    <mask id="path-2-inside-1_256_750" fill="white">
      <path d="M38.63 75.7899C62.21 75.7899 75.12 56.2499 75.12 39.2999C75.12 38.7499 75.12 38.1899 75.08 37.6399C77.59 35.8199 79.76 33.5799 81.48 30.9999C79.14 32.0399 76.66 32.7199 74.12 33.0199C76.8 31.4199 78.8 28.8999 79.76 25.9299C77.24 27.4199 74.49 28.4799 71.62 29.0399C66.76 23.8799 58.64 23.6299 53.48 28.4799C50.15 31.6099 48.74 36.2799 49.77 40.7299C39.46 40.2099 29.85 35.3399 23.34 27.3299C19.94 33.1899 21.67 40.6799 27.31 44.4499C25.27 44.3899 23.27 43.8399 21.49 42.8499C21.49 42.8999 21.49 42.9599 21.49 43.0099C21.49 49.1099 25.79 54.3699 31.78 55.5799C29.89 56.0899 27.91 56.1699 25.99 55.7999C27.67 61.0199 32.48 64.5999 37.97 64.7099C33.43 68.2799 27.82 70.2199 22.05 70.2099C21.03 70.2099 20.01 70.1499 19 70.0199C24.84 73.7899 31.67 75.7899 38.63 75.7799"/>
    </mask>
    <path d="M75.08 37.6399L73.3189 35.2112L71.9667 36.1916L72.0879 37.8575L75.08 37.6399ZM81.48 30.9999L83.9762 32.664L89.7138 24.0575L80.2616 28.2585L81.48 30.9999ZM74.12 33.0199L72.5822 30.444L74.4719 35.9992L74.12 33.0199ZM79.76 25.9299L82.6146 26.8526L85.0504 19.3166L78.2331 23.3475L79.76 25.9299ZM71.62 29.0399L69.4361 31.0968L70.5706 32.3012L72.1945 31.9844L71.62 29.0399ZM53.48 28.4799L51.4254 26.2939L51.4253 26.2939L53.48 28.4799ZM49.77 40.7299L49.6189 43.7261L53.5892 43.9263L52.6927 40.0534L49.77 40.7299ZM23.34 27.3299L25.6681 25.4378L22.9266 22.0646L20.7451 25.8243L23.34 27.3299ZM27.31 44.4499L27.2218 47.4486L37.6535 47.7554L28.9772 41.9558L27.31 44.4499ZM21.49 42.8499L22.9482 40.2281L18.49 37.7486V42.8499H21.49ZM31.78 55.5799L32.5616 58.4763L32.374 52.6393L31.78 55.5799ZM25.99 55.7999L26.5577 52.8541L21.5818 51.8952L23.1343 56.719L25.99 55.7999ZM37.97 64.7099L39.8244 67.0681L46.4239 61.8787L38.0301 61.7105L37.97 64.7099ZM22.05 70.2099L22.0552 67.2099H22.05V70.2099ZM19 70.0199L19.383 67.0444L17.3729 72.5403L19 70.0199ZM38.63 78.7899C64.2107 78.7899 78.12 57.5406 78.12 39.2999H72.12C72.12 54.9592 60.2093 72.7899 38.63 72.7899V78.7899ZM78.12 39.2999C78.12 38.7689 78.1213 38.0993 78.0721 37.4223L72.0879 37.8575C72.1187 38.2805 72.12 38.7309 72.12 39.2999H78.12ZM76.8411 40.0686C79.6332 38.044 82.0542 35.547 83.9762 32.664L78.9838 29.3358C77.4658 31.6128 75.5468 33.5958 73.3189 35.2112L76.8411 40.0686ZM80.2616 28.2585C78.1972 29.176 76.0094 29.7759 73.7681 30.0406L74.4719 35.9992C77.3106 35.6639 80.0828 34.9038 82.6984 33.7413L80.2616 28.2585ZM75.6578 35.5958C78.9661 33.6207 81.4319 30.5114 82.6146 26.8526L76.9054 25.0072C76.1681 27.2884 74.6339 29.2191 72.5822 30.444L75.6578 35.5958ZM78.2331 23.3475C75.9993 24.6683 73.5704 25.6028 71.0455 26.0954L72.1945 31.9844C75.4096 31.357 78.4807 30.1715 81.2869 28.5123L78.2331 23.3475ZM73.8039 26.983C67.8102 20.6194 57.7934 20.3085 51.4254 26.2939L55.5346 30.6659C59.4866 26.9513 65.7098 27.1404 69.4361 31.0968L73.8039 26.983ZM51.4253 26.2939C47.315 30.1574 45.577 35.9185 46.8473 41.4064L52.6927 40.0534C51.903 36.6413 52.985 33.0624 55.5347 30.6658L51.4253 26.2939ZM49.9211 37.7337C40.4597 37.2565 31.6412 32.7872 25.6681 25.4378L21.0119 29.222C28.0588 37.8926 38.4604 43.1633 49.6189 43.7261L49.9211 37.7337ZM20.7451 25.8243C16.5516 33.052 18.6854 42.2934 25.6428 46.944L28.9772 41.9558C24.6546 39.0664 23.3284 33.3278 25.9349 28.8354L20.7451 25.8243ZM27.3982 41.4512C25.8377 41.4053 24.3076 40.9842 22.9482 40.2281L20.0318 45.4717C22.2324 46.6956 24.7023 47.3745 27.2218 47.4486L27.3982 41.4512ZM18.49 42.8499C18.49 42.85 18.49 42.8501 18.49 42.8502C18.49 42.8503 18.49 42.8504 18.49 42.8505C18.49 42.8506 18.49 42.8507 18.49 42.8508C18.49 42.8509 18.49 42.851 18.49 42.8511C18.49 42.8512 18.49 42.8513 18.49 42.8514C18.49 42.8515 18.49 42.8516 18.49 42.8517C18.49 42.8518 18.49 42.8519 18.49 42.852C18.49 42.852 18.49 42.8521 18.49 42.8522C18.49 42.8523 18.49 42.8524 18.49 42.8525C18.49 42.8526 18.49 42.8527 18.49 42.8528C18.49 42.8529 18.49 42.853 18.49 42.8531C18.49 42.8532 18.49 42.8533 18.49 42.8534C18.49 42.8535 18.49 42.8536 18.49 42.8537C18.49 42.8538 18.49 42.8539 18.49 42.854C18.49 42.8541 18.49 42.8542 18.49 42.8543C18.49 42.8544 18.49 42.8545 18.49 42.8546C18.49 42.8547 18.49 42.8548 18.49 42.8549C18.49 42.855 18.49 42.8551 18.49 42.8552C18.49 42.8553 18.49 42.8554 18.49 42.8555C18.49 42.8556 18.49 42.8557 18.49 42.8558C18.49 42.8559 18.49 42.856 18.49 42.8561C18.49 42.8562 18.49 42.8563 18.49 42.8564C18.49 42.8565 18.49 42.8566 18.49 42.8567C18.49 42.8568 18.49 42.8569 18.49 42.857C18.49 42.8571 18.49 42.8572 18.49 42.8573C18.49 42.8574 18.49 42.8575 18.49 42.8576C18.49 42.8577 18.49 42.8578 18.49 42.8579C18.49 42.858 18.49 42.8581 18.49 42.8582C18.49 42.8583 18.49 42.8584 18.49 42.8585C18.49 42.8586 18.49 42.8587 18.49 42.8588C18.49 42.8589 18.49 42.859 18.49 42.8591C18.49 42.8592 18.49 42.8593 18.49 42.8594C18.49 42.8595 18.49 42.8596 18.49 42.8597C18.49 42.8598 18.49 42.8599 18.49 42.86C18.49 42.8601 18.49 42.8602 18.49 42.8603C18.49 42.8604 18.49 42.8605 18.49 42.8606C18.49 42.8607 18.49 42.8608 18.49 42.8609C18.49 42.861 18.49 42.8611 18.49 42.8612C18.49 42.8613 18.49 42.8614 18.49 42.8615C18.49 42.8616 18.49 42.8617 18.49 42.8618C18.49 42.8619 18.49 42.862 18.49 42.8621C18.49 42.8622 18.49 42.8623 18.49 42.8624C18.49 42.8625 18.49 42.8626 18.49 42.8627C18.49 42.8628 18.49 42.8629 18.49 42.863C18.49 42.8631 18.49 42.8632 18.49 42.8633C18.49 42.8634 18.49 42.8635 18.49 42.8636C18.49 42.8637 18.49 42.8638 18.49 42.8639C18.49 42.864 18.49 42.8641 18.49 42.8642C18.49 42.8643 18.49 42.8644 18.49 42.8645C18.49 42.8646 18.49 42.8647 18.49 42.8648C18.49 42.8649 18.49 42.865 18.49 42.8651C18.49 42.8652 18.49 42.8653 18.49 42.8654C18.49 42.8655 18.49 42.8656 18.49 42.8657C18.49 42.8658 18.49 42.8659 18.49 42.866C18.49 42.8661 18.49 42.8662 18.49 42.8663C18.49 42.8664 18.49 42.8665 18.49 42.8666C18.49 42.8667 18.49 42.8668 18.49 42.8669C18.49 42.867 18.49 42.8671 18.49 42.8672C18.49 42.8673 18.49 42.8674 18.49 42.8675C18.49 42.8676 18.49 42.8678 18.49 42.8679C18.49 42.868 18.49 42.8681 18.49 42.8682C18.49 42.8683 18.49 42.8684 18.49 42.8685C18.49 42.8686 18.49 42.8687 18.49 42.8688C18.49 42.8689 18.49 42.869 18.49 42.8691C18.49 42.8692 18.49 42.8693 18.49 42.8694C18.49 42.8695 18.49 42.8696 18.49 42.8697C18.49 42.8698 18.49 42.8699 18.49 42.87C18.49 42.8701 18.49 42.8702 18.49 42.8703C18.49 42.8704 18.49 42.8705 18.49 42.8706C18.49 42.8707 18.49 42.8708 18.49 42.8709C18.49 42.871 18.49 42.8711 18.49 42.8712C18.49 42.8713 18.49 42.8714 18.49 42.8715C18.49 42.8716 18.49 42.8717 18.49 42.8718C18.49 42.8719 18.49 42.872 18.49 42.8721C18.49 42.8722 18.49 42.8723 18.49 42.8724C18.49 42.8726 18.49 42.8727 18.49 42.8728C18.49 42.8729 18.49 42.873 18.49 42.8731C18.49 42.8732 18.49 42.8733 18.49 42.8734C18.49 42.8735 18.49 42.8736 18.49 42.8737C18.49 42.8738 18.49 42.8739 18.49 42.874C18.49 42.8741 18.49 42.8742 18.49 42.8743C18.49 42.8744 18.49 42.8745 18.49 42.8746C18.49 42.8747 18.49 42.8748 18.49 42.8749C18.49 42.875 18.49 42.8751 18.49 42.8752C18.49 42.8753 18.49 42.8754 18.49 42.8755C18.49 42.8756 18.49 42.8757 18.49 42.8758C18.49 42.8759 18.49 42.876 18.49 42.8762C18.49 42.8763 18.49 42.8764 18.49 42.8765C18.49 42.8766 18.49 42.8767 18.49 42.8768C18.49 42.8769 18.49 42.877 18.49 42.8771C18.49 42.8772 18.49 42.8773 18.49 42.8774C18.49 42.8775 18.49 42.8776 18.49 42.8777C18.49 42.8778 18.49 42.8779 18.49 42.878C18.49 42.8781 18.49 42.8782 18.49 42.8783C18.49 42.8784 18.49 42.8785 18.49 42.8786C18.49 42.8787 18.49 42.8788 18.49 42.8789C18.49 42.879 18.49 42.8792 18.49 42.8793C18.49 42.8794 18.49 42.8795 18.49 42.8796C18.49 42.8797 18.49 42.8798 18.49 42.8799C18.49 42.88 18.49 42.8801 18.49 42.8802C18.49 42.8803 18.49 42.8804 18.49 42.8805C18.49 42.8806 18.49 42.8807 18.49 42.8808C18.49 42.8809 18.49 42.881 18.49 42.8811C18.49 42.8812 18.49 42.8813 18.49 42.8814C18.49 42.8815 18.49 42.8816 18.49 42.8817C18.49 42.8819 18.49 42.882 18.49 42.8821C18.49 42.8822 18.49 42.8823 18.49 42.8824C18.49 42.8825 18.49 42.8826 18.49 42.8827C18.49 42.8828 18.49 42.8829 18.49 42.883C18.49 42.8831 18.49 42.8832 18.49 42.8833C18.49 42.8834 18.49 42.8835 18.49 42.8836C18.49 42.8837 18.49 42.8838 18.49 42.8839C18.49 42.884 18.49 42.8841 18.49 42.8842C18.49 42.8844 18.49 42.8845 18.49 42.8846C18.49 42.8847 18.49 42.8848 18.49 42.8849C18.49 42.885 18.49 42.8851 18.49 42.8852C18.49 42.8853 18.49 42.8854 18.49 42.8855C18.49 42.8856 18.49 42.8857 18.49 42.8858C18.49 42.8859 18.49 42.886 18.49 42.8861C18.49 42.8862 18.49 42.8863 18.49 42.8864C18.49 42.8865 18.49 42.8867 18.49 42.8868C18.49 42.8869 18.49 42.887 18.49 42.8871C18.49 42.8872 18.49 42.8873 18.49 42.8874C18.49 42.8875 18.49 42.8876 18.49 42.8877C18.49 42.8878 18.49 42.8879 18.49 42.888C18.49 42.8881 18.49 42.8882 18.49 42.8883C18.49 42.8884 18.49 42.8885 18.49 42.8886C18.49 42.8887 18.49 42.8889 18.49 42.889C18.49 42.8891 18.49 42.8892 18.49 42.8893C18.49 42.8894 18.49 42.8895 18.49 42.8896C18.49 42.8897 18.49 42.8898 18.49 42.8899C18.49 42.89 18.49 42.8901 18.49 42.8902C18.49 42.8903 18.49 42.8904 18.49 42.8905C18.49 42.8906 18.49 42.8907 18.49 42.8908C18.49 42.891 18.49 42.8911 18.49 42.8912C18.49 42.8913 18.49 42.8914 18.49 42.8915C18.49 42.8916 18.49 42.8917 18.49 42.8918C18.49 42.8919 18.49 42.892 18.49 42.8921C18.49 42.8922 18.49 42.8923 18.49 42.8924C18.49 42.8925 18.49 42.8926 18.49 42.8927C18.49 42.8929 18.49 42.893 18.49 42.8931C18.49 42.8932 18.49 42.8933 18.49 42.8934C18.49 42.8935 18.49 42.8936 18.49 42.8937C18.49 42.8938 18.49 42.8939 18.49 42.894C18.49 42.8941 18.49 42.8942 18.49 42.8943C18.49 42.8944 18.49 42.8945 18.49 42.8946C18.49 42.8947 18.49 42.8949 18.49 42.895C18.49 42.8951 18.49 42.8952 18.49 42.8953C18.49 42.8954 18.49 42.8955 18.49 42.8956C18.49 42.8957 18.49 42.8958 18.49 42.8959C18.49 42.896 18.49 42.8961 18.49 42.8962C18.49 42.8963 18.49 42.8964 18.49 42.8965C18.49 42.8967 18.49 42.8968 18.49 42.8969C18.49 42.897 18.49 42.8971 18.49 42.8972C18.49 42.8973 18.49 42.8974 18.49 42.8975C18.49 42.8976 18.49 42.8977 18.49 42.8978C18.49 42.8979 18.49 42.898 18.49 42.8981C18.49 42.8982 18.49 42.8983 18.49 42.8985C18.49 42.8986 18.49 42.8987 18.49 42.8988C18.49 42.8989 18.49 42.899 18.49 42.8991C18.49 42.8992 18.49 42.8993 18.49 42.8994C18.49 42.8995 18.49 42.8996 18.49 42.8997C18.49 42.8998 18.49 42.8999 18.49 42.9C18.49 42.9002 18.49 42.9003 18.49 42.9004C18.49 42.9005 18.49 42.9006 18.49 42.9007C18.49 42.9008 18.49 42.9009 18.49 42.901C18.49 42.9011 18.49 42.9012 18.49 42.9013C18.49 42.9014 18.49 42.9015 18.49 42.9016C18.49 42.9017 18.49 42.9018 18.49 42.902C18.49 42.9021 18.49 42.9022 18.49 42.9023C18.49 42.9024 18.49 42.9025 18.49 42.9026C18.49 42.9027 18.49 42.9028 18.49 42.9029C18.49 42.903 18.49 42.9031 18.49 42.9032C18.49 42.9033 18.49 42.9034 18.49 42.9036C18.49 42.9037 18.49 42.9038 18.49 42.9039C18.49 42.904 18.49 42.9041 18.49 42.9042C18.49 42.9043 18.49 42.9044 18.49 42.9045C18.49 42.9046 18.49 42.9047 18.49 42.9048C18.49 42.9049 18.49 42.905 18.49 42.9051C18.49 42.9053 18.49 42.9054 18.49 42.9055C18.49 42.9056 18.49 42.9057 18.49 42.9058C18.49 42.9059 18.49 42.906 18.49 42.9061C18.49 42.9062 18.49 42.9063 18.49 42.9064C18.49 42.9065 18.49 42.9066 18.49 42.9067C18.49 42.9069 18.49 42.907 18.49 42.9071C18.49 42.9072 18.49 42.9073 18.49 42.9074C18.49 42.9075 18.49 42.9076 18.49 42.9077C18.49 42.9078 18.49 42.9079 18.49 42.908C18.49 42.9081 18.49 42.9082 18.49 42.9083C18.49 42.9085 18.49 42.9086 18.49 42.9087C18.49 42.9088 18.49 42.9089 18.49 42.909C18.49 42.9091 18.49 42.9092 18.49 42.9093C18.49 42.9094 18.49 42.9095 18.49 42.9096C18.49 42.9097 18.49 42.9098 18.49 42.91C18.49 42.9101 18.49 42.9102 18.49 42.9103C18.49 42.9104 18.49 42.9105 18.49 42.9106C18.49 42.9107 18.49 42.9108 18.49 42.9109C18.49 42.911 18.49 42.9111 18.49 42.9112C18.49 42.9113 18.49 42.9114 18.49 42.9116C18.49 42.9117 18.49 42.9118 18.49 42.9119C18.49 42.912 18.49 42.9121 18.49 42.9122C18.49 42.9123 18.49 42.9124 18.49 42.9125C18.49 42.9126 18.49 42.9127 18.49 42.9128C18.49 42.9129 18.49 42.9131 18.49 42.9132C18.49 42.9133 18.49 42.9134 18.49 42.9135C18.49 42.9136 18.49 42.9137 18.49 42.9138C18.49 42.9139 18.49 42.914 18.49 42.9141C18.49 42.9142 18.49 42.9143 18.49 42.9144C18.49 42.9146 18.49 42.9147 18.49 42.9148C18.49 42.9149 18.49 42.915 18.49 42.9151C18.49 42.9152 18.49 42.9153 18.49 42.9154C18.49 42.9155 18.49 42.9156 18.49 42.9157C18.49 42.9158 18.49 42.9159 18.49 42.916C18.49 42.9162 18.49 42.9163 18.49 42.9164C18.49 42.9165 18.49 42.9166 18.49 42.9167C18.49 42.9168 18.49 42.9169 18.49 42.917C18.49 42.9171 18.49 42.9172 18.49 42.9173C18.49 42.9174 18.49 42.9176 18.49 42.9177C18.49 42.9178 18.49 42.9179 18.49 42.918C18.49 42.9181 18.49 42.9182 18.49 42.9183C18.49 42.9184 18.49 42.9185 18.49 42.9186C18.49 42.9187 18.49 42.9188 18.49 42.9189C18.49 42.9191 18.49 42.9192 18.49 42.9193C18.49 42.9194 18.49 42.9195 18.49 42.9196C18.49 42.9197 18.49 42.9198 18.49 42.9199C18.49 42.92 18.49 42.9201 18.49 42.9202C18.49 42.9203 18.49 42.9204 18.49 42.9206C18.49 42.9207 18.49 42.9208 18.49 42.9209C18.49 42.921 18.49 42.9211 18.49 42.9212C18.49 42.9213 18.49 42.9214 18.49 42.9215C18.49 42.9216 18.49 42.9217 18.49 42.9218C18.49 42.9219 18.49 42.9221 18.49 42.9222C18.49 42.9223 18.49 42.9224 18.49 42.9225C18.49 42.9226 18.49 42.9227 18.49 42.9228C18.49 42.9229 18.49 42.923 18.49 42.9231C18.49 42.9232 18.49 42.9233 18.49 42.9235C18.49 42.9236 18.49 42.9237 18.49 42.9238C18.49 42.9239 18.49 42.924 18.49 42.9241C18.49 42.9242 18.49 42.9243 18.49 42.9244C18.49 42.9245 18.49 42.9246 18.49 42.9247C18.49 42.9248 18.49 42.925 18.49 42.9251C18.49 42.9252 18.49 42.9253 18.49 42.9254C18.49 42.9255 18.49 42.9256 18.49 42.9257C18.49 42.9258 18.49 42.9259 18.49 42.926C18.49 42.9261 18.49 42.9262 18.49 42.9264C18.49 42.9265 18.49 42.9266 18.49 42.9267C18.49 42.9268 18.49 42.9269 18.49 42.927C18.49 42.9271 18.49 42.9272 18.49 42.9273C18.49 42.9274 18.49 42.9275 18.49 42.9276C18.49 42.9277 18.49 42.9279 18.49 42.928C18.49 42.9281 18.49 42.9282 18.49 42.9283C18.49 42.9284 18.49 42.9285 18.49 42.9286C18.49 42.9287 18.49 42.9288 18.49 42.9289C18.49 42.929 18.49 42.9291 18.49 42.9293C18.49 42.9294 18.49 42.9295 18.49 42.9296C18.49 42.9297 18.49 42.9298 18.49 42.9299C18.49 42.93 18.49 42.9301 18.49 42.9302C18.49 42.9303 18.49 42.9304 18.49 42.9305C18.49 42.9306 18.49 42.9308 18.49 42.9309C18.49 42.931 18.49 42.9311 18.49 42.9312C18.49 42.9313 18.49 42.9314 18.49 42.9315C18.49 42.9316 18.49 42.9317 18.49 42.9318C18.49 42.9319 18.49 42.932 18.49 42.9322C18.49 42.9323 18.49 42.9324 18.49 42.9325C18.49 42.9326 18.49 42.9327 18.49 42.9328C18.49 42.9329 18.49 42.933 18.49 42.9331C18.49 42.9332 18.49 42.9333 18.49 42.9334C18.49 42.9335 18.49 42.9337 18.49 42.9338C18.49 42.9339 18.49 42.934 18.49 42.9341C18.49 42.9342 18.49 42.9343 18.49 42.9344C18.49 42.9345 18.49 42.9346 18.49 42.9347C18.49 42.9348 18.49 42.9349 18.49 42.9351C18.49 42.9352 18.49 42.9353 18.49 42.9354C18.49 42.9355 18.49 42.9356 18.49 42.9357C18.49 42.9358 18.49 42.9359 18.49 42.936C18.49 42.9361 18.49 42.9362 18.49 42.9363C18.49 42.9364 18.49 42.9366 18.49 42.9367C18.49 42.9368 18.49 42.9369 18.49 42.937C18.49 42.9371 18.49 42.9372 18.49 42.9373C18.49 42.9374 18.49 42.9375 18.49 42.9376C18.49 42.9377 18.49 42.9378 18.49 42.9379C18.49 42.9381 18.49 42.9382 18.49 42.9383C18.49 42.9384 18.49 42.9385 18.49 42.9386C18.49 42.9387 18.49 42.9388 18.49 42.9389C18.49 42.939 18.49 42.9391 18.49 42.9392C18.49 42.9393 18.49 42.9395 18.49 42.9396C18.49 42.9397 18.49 42.9398 18.49 42.9399C18.49 42.94 18.49 42.9401 18.49 42.9402C18.49 42.9403 18.49 42.9404 18.49 42.9405C18.49 42.9406 18.49 42.9407 18.49 42.9408C18.49 42.941 18.49 42.9411 18.49 42.9412C18.49 42.9413 18.49 42.9414 18.49 42.9415C18.49 42.9416 18.49 42.9417 18.49 42.9418C18.49 42.9419 18.49 42.942 18.49 42.9421C18.49 42.9422 18.49 42.9423 18.49 42.9425C18.49 42.9426 18.49 42.9427 18.49 42.9428C18.49 42.9429 18.49 42.943 18.49 42.9431C18.49 42.9432 18.49 42.9433 18.49 42.9434C18.49 42.9435 18.49 42.9436 18.49 42.9437C18.49 42.9438 18.49 42.944 18.49 42.9441C18.49 42.9442 18.49 42.9443 18.49 42.9444C18.49 42.9445 18.49 42.9446 18.49 42.9447C18.49 42.9448 18.49 42.9449 18.49 42.945C18.49 42.9451 18.49 42.9452 18.49 42.9453C18.49 42.9455 18.49 42.9456 18.49 42.9457C18.49 42.9458 18.49 42.9459 18.49 42.946C18.49 42.9461 18.49 42.9462 18.49 42.9463C18.49 42.9464 18.49 42.9465 18.49 42.9466C18.49 42.9467 18.49 42.9468 18.49 42.947C18.49 42.9471 18.49 42.9472 18.49 42.9473C18.49 42.9474 18.49 42.9475 18.49 42.9476C18.49 42.9477 18.49 42.9478 18.49 42.9479C18.49 42.948 18.49 42.9481 18.49 42.9482C18.49 42.9483 18.49 42.9485 18.49 42.9486C18.49 42.9487 18.49 42.9488 18.49 42.9489C18.49 42.949 18.49 42.9491 18.49 42.9492C18.49 42.9493 18.49 42.9494 18.49 42.9495C18.49 42.9496 18.49 42.9497 18.49 42.9498C18.49 42.9499 18.49 42.9501 18.49 42.9502C18.49 42.9503 18.49 42.9504 18.49 42.9505C18.49 42.9506 18.49 42.9507 18.49 42.9508C18.49 42.9509 18.49 42.951 18.49 42.9511C18.49 42.9512 18.49 42.9513 18.49 42.9514C18.49 42.9515 18.49 42.9517 18.49 42.9518C18.49 42.9519 18.49 42.952 18.49 42.9521C18.49 42.9522 18.49 42.9523 18.49 42.9524C18.49 42.9525 18.49 42.9526 18.49 42.9527C18.49 42.9528 18.49 42.9529 18.49 42.953C18.49 42.9531 18.49 42.9533 18.49 42.9534C18.49 42.9535 18.49 42.9536 18.49 42.9537C18.49 42.9538 18.49 42.9539 18.49 42.954C18.49 42.9541 18.49 42.9542 18.49 42.9543C18.49 42.9544 18.49 42.9545 18.49 42.9546C18.49 42.9547 18.49 42.9549 18.49 42.955C18.49 42.9551 18.49 42.9552 18.49 42.9553C18.49 42.9554 18.49 42.9555 18.49 42.9556C18.49 42.9557 18.49 42.9558 18.49 42.9559C18.49 42.956 18.49 42.9561 18.49 42.9562C18.49 42.9563 18.49 42.9565 18.49 42.9566C18.49 42.9567 18.49 42.9568 18.49 42.9569C18.49 42.957 18.49 42.9571 18.49 42.9572C18.49 42.9573 18.49 42.9574 18.49 42.9575C18.49 42.9576 18.49 42.9577 18.49 42.9578C18.49 42.9579 18.49 42.958 18.49 42.9582C18.49 42.9583 18.49 42.9584 18.49 42.9585C18.49 42.9586 18.49 42.9587 18.49 42.9588C18.49 42.9589 18.49 42.959 18.49 42.9591C18.49 42.9592 18.49 42.9593 18.49 42.9594C18.49 42.9595 18.49 42.9596 18.49 42.9597C18.49 42.9599 18.49 42.96 18.49 42.9601C18.49 42.9602 18.49 42.9603 18.49 42.9604C18.49 42.9605 18.49 42.9606 18.49 42.9607C18.49 42.9608 18.49 42.9609 18.49 42.961C18.49 42.9611 18.49 42.9612 18.49 42.9613C18.49 42.9614 18.49 42.9615 18.49 42.9617C18.49 42.9618 18.49 42.9619 18.49 42.962C18.49 42.9621 18.49 42.9622 18.49 42.9623C18.49 42.9624 18.49 42.9625 18.49 42.9626C18.49 42.9627 18.49 42.9628 18.49 42.9629C18.49 42.963 18.49 42.9631 18.49 42.9632C18.49 42.9633 18.49 42.9635 18.49 42.9636C18.49 42.9637 18.49 42.9638 18.49 42.9639C18.49 42.964 18.49 42.9641 18.49 42.9642C18.49 42.9643 18.49 42.9644 18.49 42.9645C18.49 42.9646 18.49 42.9647 18.49 42.9648C18.49 42.9649 18.49 42.965 18.49 42.9651C18.49 42.9653 18.49 42.9654 18.49 42.9655C18.49 42.9656 18.49 42.9657 18.49 42.9658C18.49 42.9659 18.49 42.966 18.49 42.9661C18.49 42.9662 18.49 42.9663 18.49 42.9664C18.49 42.9665 18.49 42.9666 18.49 42.9667C18.49 42.9668 18.49 42.9669 18.49 42.967C18.49 42.9672 18.49 42.9673 18.49 42.9674C18.49 42.9675 18.49 42.9676 18.49 42.9677C18.49 42.9678 18.49 42.9679 18.49 42.968C18.49 42.9681 18.49 42.9682 18.49 42.9683C18.49 42.9684 18.49 42.9685 18.49 42.9686C18.49 42.9687 18.49 42.9688 18.49 42.9689C18.49 42.969 18.49 42.9692 18.49 42.9693C18.49 42.9694 18.49 42.9695 18.49 42.9696C18.49 42.9697 18.49 42.9698 18.49 42.9699C18.49 42.97 18.49 42.9701 18.49 42.9702C18.49 42.9703 18.49 42.9704 18.49 42.9705C18.49 42.9706 18.49 42.9707 18.49 42.9708C18.49 42.9709 18.49 42.971 18.49 42.9711C18.49 42.9713 18.49 42.9714 18.49 42.9715C18.49 42.9716 18.49 42.9717 18.49 42.9718C18.49 42.9719 18.49 42.972 18.49 42.9721C18.49 42.9722 18.49 42.9723 18.49 42.9724C18.49 42.9725 18.49 42.9726 18.49 42.9727C18.49 42.9728 18.49 42.9729 18.49 42.973C18.49 42.9731 18.49 42.9732 18.49 42.9733C18.49 42.9735 18.49 42.9736 18.49 42.9737C18.49 42.9738 18.49 42.9739 18.49 42.974C18.49 42.9741 18.49 42.9742 18.49 42.9743C18.49 42.9744 18.49 42.9745 18.49 42.9746C18.49 42.9747 18.49 42.9748 18.49 42.9749C18.49 42.975 18.49 42.9751 18.49 42.9752C18.49 42.9753 18.49 42.9754 18.49 42.9755C18.49 42.9756 18.49 42.9758 18.49 42.9759C18.49 42.976 18.49 42.9761 18.49 42.9762C18.49 42.9763 18.49 42.9764 18.49 42.9765C18.49 42.9766 18.49 42.9767 18.49 42.9768C18.49 42.9769 18.49 42.977 18.49 42.9771C18.49 42.9772 18.49 42.9773 18.49 42.9774C18.49 42.9775 18.49 42.9776 18.49 42.9777C18.49 42.9778 18.49 42.9779 18.49 42.978C18.49 42.9781 18.49 42.9783 18.49 42.9784C18.49 42.9785 18.49 42.9786 18.49 42.9787C18.49 42.9788 18.49 42.9789 18.49 42.979C18.49 42.9791 18.49 42.9792 18.49 42.9793C18.49 42.9794 18.49 42.9795 18.49 42.9796C18.49 42.9797 18.49 42.9798 18.49 42.9799C18.49 42.98 18.49 42.9801 18.49 42.9802C18.49 42.9803 18.49 42.9804 18.49 42.9805C18.49 42.9806 18.49 42.9807 18.49 42.9808C18.49 42.981 18.49 42.9811 18.49 42.9812C18.49 42.9813 18.49 42.9814 18.49 42.9815C18.49 42.9816 18.49 42.9817 18.49 42.9818C18.49 42.9819 18.49 42.982 18.49 42.9821C18.49 42.9822 18.49 42.9823 18.49 42.9824C18.49 42.9825 18.49 42.9826 18.49 42.9827C18.49 42.9828 18.49 42.9829 18.49 42.983C18.49 42.9831 18.49 42.9832 18.49 42.9833C18.49 42.9834 18.49 42.9835 18.49 42.9836C18.49 42.9837 18.49 42.9838 18.49 42.9839C18.49 42.9841 18.49 42.9842 18.49 42.9843C18.49 42.9844 18.49 42.9845 18.49 42.9846C18.49 42.9847 18.49 42.9848 18.49 42.9849C18.49 42.985 18.49 42.9851 18.49 42.9852C18.49 42.9853 18.49 42.9854 18.49 42.9855C18.49 42.9856 18.49 42.9857 18.49 42.9858C18.49 42.9859 18.49 42.986 18.49 42.9861C18.49 42.9862 18.49 42.9863 18.49 42.9864C18.49 42.9865 18.49 42.9866 18.49 42.9867C18.49 42.9868 18.49 42.9869 18.49 42.987C18.49 42.9871 18.49 42.9872 18.49 42.9873C18.49 42.9874 18.49 42.9875 18.49 42.9876C18.49 42.9878 18.49 42.9879 18.49 42.988C18.49 42.9881 18.49 42.9882 18.49 42.9883C18.49 42.9884 18.49 42.9885 18.49 42.9886C18.49 42.9887 18.49 42.9888 18.49 42.9889C18.49 42.989 18.49 42.9891 18.49 42.9892C18.49 42.9893 18.49 42.9894 18.49 42.9895C18.49 42.9896 18.49 42.9897 18.49 42.9898C18.49 42.9899 18.49 42.99 18.49 42.9901C18.49 42.9902 18.49 42.9903 18.49 42.9904C18.49 42.9905 18.49 42.9906 18.49 42.9907C18.49 42.9908 18.49 42.9909 18.49 42.991C18.49 42.9911 18.49 42.9912 18.49 42.9913C18.49 42.9914 18.49 42.9915 18.49 42.9916C18.49 42.9917 18.49 42.9918 18.49 42.9919C18.49 42.992 18.49 42.9921 18.49 42.9922C18.49 42.9923 18.49 42.9924 18.49 42.9925C18.49 42.9926 18.49 42.9928 18.49 42.9929C18.49 42.993 18.49 42.9931 18.49 42.9932C18.49 42.9933 18.49 42.9934 18.49 42.9935C18.49 42.9936 18.49 42.9937 18.49 42.9938C18.49 42.9939 18.49 42.994 18.49 42.9941C18.49 42.9942 18.49 42.9943 18.49 42.9944C18.49 42.9945 18.49 42.9946 18.49 42.9947C18.49 42.9948 18.49 42.9949 18.49 42.995C18.49 42.9951 18.49 42.9952 18.49 42.9953C18.49 42.9954 18.49 42.9955 18.49 42.9956C18.49 42.9957 18.49 42.9958 18.49 42.9959C18.49 42.996 18.49 42.9961 18.49 42.9962C18.49 42.9963 18.49 42.9964 18.49 42.9965C18.49 42.9966 18.49 42.9967 18.49 42.9968C18.49 42.9969 18.49 42.997 18.49 42.9971C18.49 42.9972 18.49 42.9973 18.49 42.9974C18.49 42.9975 18.49 42.9976 18.49 42.9977C18.49 42.9978 18.49 42.9979 18.49 42.998C18.49 42.9981 18.49 42.9982 18.49 42.9983C18.49 42.9984 18.49 42.9985 18.49 42.9986C18.49 42.9987 18.49 42.9988 18.49 42.9989C18.49 42.999 18.49 42.9991 18.49 42.9992C18.49 42.9993 18.49 42.9994 18.49 42.9995C18.49 42.9996 18.49 42.9997 18.49 42.9998C18.49 42.9999 18.49 43 18.49 43.0001C18.49 43.0002 18.49 43.0003 18.49 43.0004C18.49 43.0005 18.49 43.0006 18.49 43.0007C18.49 43.0008 18.49 43.0009 18.49 43.001C18.49 43.0011 18.49 43.0012 18.49 43.0013C18.49 43.0014 18.49 43.0015 18.49 43.0016C18.49 43.0017 18.49 43.0018 18.49 43.0019C18.49 43.002 18.49 43.0021 18.49 43.0022C18.49 43.0023 18.49 43.0024 18.49 43.0025C18.49 43.0026 18.49 43.0027 18.49 43.0028C18.49 43.0029 18.49 43.003 18.49 43.0031C18.49 43.0032 18.49 43.0033 18.49 43.0034C18.49 43.0035 18.49 43.0036 18.49 43.0037C18.49 43.0038 18.49 43.0039 18.49 43.004C18.49 43.0041 18.49 43.0042 18.49 43.0043C18.49 43.0044 18.49 43.0045 18.49 43.0046C18.49 43.0047 18.49 43.0048 18.49 43.0049C18.49 43.005 18.49 43.0051 18.49 43.0052C18.49 43.0053 18.49 43.0054 18.49 43.0055C18.49 43.0056 18.49 43.0057 18.49 43.0058C18.49 43.0059 18.49 43.006 18.49 43.0061C18.49 43.0062 18.49 43.0063 18.49 43.0064C18.49 43.0065 18.49 43.0066 18.49 43.0067C18.49 43.0068 18.49 43.0069 18.49 43.007C18.49 43.0071 18.49 43.0072 18.49 43.0072C18.49 43.0073 18.49 43.0074 18.49 43.0075C18.49 43.0076 18.49 43.0077 18.49 43.0078C18.49 43.0079 18.49 43.008 18.49 43.0081C18.49 43.0082 18.49 43.0083 18.49 43.0084C18.49 43.0085 18.49 43.0086 18.49 43.0087C18.49 43.0088 18.49 43.0089 18.49 43.009C18.49 43.0091 18.49 43.0092 18.49 43.0093C18.49 43.0094 18.49 43.0095 18.49 43.0096C18.49 43.0097 18.49 43.0098 18.49 43.0099H24.49C24.49 43.0098 24.49 43.0097 24.49 43.0096C24.49 43.0095 24.49 43.0094 24.49 43.0093C24.49 43.0092 24.49 43.0091 24.49 43.009C24.49 43.0089 24.49 43.0088 24.49 43.0087C24.49 43.0086 24.49 43.0085 24.49 43.0084C24.49 43.0083 24.49 43.0082 24.49 43.0081C24.49 43.008 24.49 43.0079 24.49 43.0078C24.49 43.0077 24.49 43.0076 24.49 43.0075C24.49 43.0074 24.49 43.0073 24.49 43.0072C24.49 43.0072 24.49 43.0071 24.49 43.007C24.49 43.0069 24.49 43.0068 24.49 43.0067C24.49 43.0066 24.49 43.0065 24.49 43.0064C24.49 43.0063 24.49 43.0062 24.49 43.0061C24.49 43.006 24.49 43.0059 24.49 43.0058C24.49 43.0057 24.49 43.0056 24.49 43.0055C24.49 43.0054 24.49 43.0053 24.49 43.0052C24.49 43.0051 24.49 43.005 24.49 43.0049C24.49 43.0048 24.49 43.0047 24.49 43.0046C24.49 43.0045 24.49 43.0044 24.49 43.0043C24.49 43.0042 24.49 43.0041 24.49 43.004C24.49 43.0039 24.49 43.0038 24.49 43.0037C24.49 43.0036 24.49 43.0035 24.49 43.0034C24.49 43.0033 24.49 43.0032 24.49 43.0031C24.49 43.003 24.49 43.0029 24.49 43.0028C24.49 43.0027 24.49 43.0026 24.49 43.0025C24.49 43.0024 24.49 43.0023 24.49 43.0022C24.49 43.0021 24.49 43.002 24.49 43.0019C24.49 43.0018 24.49 43.0017 24.49 43.0016C24.49 43.0015 24.49 43.0014 24.49 43.0013C24.49 43.0012 24.49 43.0011 24.49 43.001C24.49 43.0009 24.49 43.0008 24.49 43.0007C24.49 43.0006 24.49 43.0005 24.49 43.0004C24.49 43.0003 24.49 43.0002 24.49 43.0001C24.49 43 24.49 42.9999 24.49 42.9998C24.49 42.9997 24.49 42.9996 24.49 42.9995C24.49 42.9994 24.49 42.9993 24.49 42.9992C24.49 42.9991 24.49 42.999 24.49 42.9989C24.49 42.9988 24.49 42.9987 24.49 42.9986C24.49 42.9985 24.49 42.9984 24.49 42.9983C24.49 42.9982 24.49 42.9981 24.49 42.998C24.49 42.9979 24.49 42.9978 24.49 42.9977C24.49 42.9976 24.49 42.9975 24.49 42.9974C24.49 42.9973 24.49 42.9972 24.49 42.9971C24.49 42.997 24.49 42.9969 24.49 42.9968C24.49 42.9967 24.49 42.9966 24.49 42.9965C24.49 42.9964 24.49 42.9963 24.49 42.9962C24.49 42.9961 24.49 42.996 24.49 42.9959C24.49 42.9958 24.49 42.9957 24.49 42.9956C24.49 42.9955 24.49 42.9954 24.49 42.9953C24.49 42.9952 24.49 42.9951 24.49 42.995C24.49 42.9949 24.49 42.9948 24.49 42.9947C24.49 42.9946 24.49 42.9945 24.49 42.9944C24.49 42.9943 24.49 42.9942 24.49 42.9941C24.49 42.994 24.49 42.9939 24.49 42.9938C24.49 42.9937 24.49 42.9936 24.49 42.9935C24.49 42.9934 24.49 42.9933 24.49 42.9932C24.49 42.9931 24.49 42.993 24.49 42.9929C24.49 42.9928 24.49 42.9926 24.49 42.9925C24.49 42.9924 24.49 42.9923 24.49 42.9922C24.49 42.9921 24.49 42.992 24.49 42.9919C24.49 42.9918 24.49 42.9917 24.49 42.9916C24.49 42.9915 24.49 42.9914 24.49 42.9913C24.49 42.9912 24.49 42.9911 24.49 42.991C24.49 42.9909 24.49 42.9908 24.49 42.9907C24.49 42.9906 24.49 42.9905 24.49 42.9904C24.49 42.9903 24.49 42.9902 24.49 42.9901C24.49 42.99 24.49 42.9899 24.49 42.9898C24.49 42.9897 24.49 42.9896 24.49 42.9895C24.49 42.9894 24.49 42.9893 24.49 42.9892C24.49 42.9891 24.49 42.989 24.49 42.9889C24.49 42.9888 24.49 42.9887 24.49 42.9886C24.49 42.9885 24.49 42.9884 24.49 42.9883C24.49 42.9882 24.49 42.9881 24.49 42.988C24.49 42.9879 24.49 42.9878 24.49 42.9876C24.49 42.9875 24.49 42.9874 24.49 42.9873C24.49 42.9872 24.49 42.9871 24.49 42.987C24.49 42.9869 24.49 42.9868 24.49 42.9867C24.49 42.9866 24.49 42.9865 24.49 42.9864C24.49 42.9863 24.49 42.9862 24.49 42.9861C24.49 42.986 24.49 42.9859 24.49 42.9858C24.49 42.9857 24.49 42.9856 24.49 42.9855C24.49 42.9854 24.49 42.9853 24.49 42.9852C24.49 42.9851 24.49 42.985 24.49 42.9849C24.49 42.9848 24.49 42.9847 24.49 42.9846C24.49 42.9845 24.49 42.9844 24.49 42.9843C24.49 42.9842 24.49 42.9841 24.49 42.9839C24.49 42.9838 24.49 42.9837 24.49 42.9836C24.49 42.9835 24.49 42.9834 24.49 42.9833C24.49 42.9832 24.49 42.9831 24.49 42.983C24.49 42.9829 24.49 42.9828 24.49 42.9827C24.49 42.9826 24.49 42.9825 24.49 42.9824C24.49 42.9823 24.49 42.9822 24.49 42.9821C24.49 42.982 24.49 42.9819 24.49 42.9818C24.49 42.9817 24.49 42.9816 24.49 42.9815C24.49 42.9814 24.49 42.9813 24.49 42.9812C24.49 42.9811 24.49 42.981 24.49 42.9808C24.49 42.9807 24.49 42.9806 24.49 42.9805C24.49 42.9804 24.49 42.9803 24.49 42.9802C24.49 42.9801 24.49 42.98 24.49 42.9799C24.49 42.9798 24.49 42.9797 24.49 42.9796C24.49 42.9795 24.49 42.9794 24.49 42.9793C24.49 42.9792 24.49 42.9791 24.49 42.979C24.49 42.9789 24.49 42.9788 24.49 42.9787C24.49 42.9786 24.49 42.9785 24.49 42.9784C24.49 42.9783 24.49 42.9781 24.49 42.978C24.49 42.9779 24.49 42.9778 24.49 42.9777C24.49 42.9776 24.49 42.9775 24.49 42.9774C24.49 42.9773 24.49 42.9772 24.49 42.9771C24.49 42.977 24.49 42.9769 24.49 42.9768C24.49 42.9767 24.49 42.9766 24.49 42.9765C24.49 42.9764 24.49 42.9763 24.49 42.9762C24.49 42.9761 24.49 42.976 24.49 42.9759C24.49 42.9758 24.49 42.9756 24.49 42.9755C24.49 42.9754 24.49 42.9753 24.49 42.9752C24.49 42.9751 24.49 42.975 24.49 42.9749C24.49 42.9748 24.49 42.9747 24.49 42.9746C24.49 42.9745 24.49 42.9744 24.49 42.9743C24.49 42.9742 24.49 42.9741 24.49 42.974C24.49 42.9739 24.49 42.9738 24.49 42.9737C24.49 42.9736 24.49 42.9735 24.49 42.9733C24.49 42.9732 24.49 42.9731 24.49 42.973C24.49 42.9729 24.49 42.9728 24.49 42.9727C24.49 42.9726 24.49 42.9725 24.49 42.9724C24.49 42.9723 24.49 42.9722 24.49 42.9721C24.49 42.972 24.49 42.9719 24.49 42.9718C24.49 42.9717 24.49 42.9716 24.49 42.9715C24.49 42.9714 24.49 42.9713 24.49 42.9711C24.49 42.971 24.49 42.9709 24.49 42.9708C24.49 42.9707 24.49 42.9706 24.49 42.9705C24.49 42.9704 24.49 42.9703 24.49 42.9702C24.49 42.9701 24.49 42.97 24.49 42.9699C24.49 42.9698 24.49 42.9697 24.49 42.9696C24.49 42.9695 24.49 42.9694 24.49 42.9693C24.49 42.9692 24.49 42.969 24.49 42.9689C24.49 42.9688 24.49 42.9687 24.49 42.9686C24.49 42.9685 24.49 42.9684 24.49 42.9683C24.49 42.9682 24.49 42.9681 24.49 42.968C24.49 42.9679 24.49 42.9678 24.49 42.9677C24.49 42.9676 24.49 42.9675 24.49 42.9674C24.49 42.9673 24.49 42.9672 24.49 42.967C24.49 42.9669 24.49 42.9668 24.49 42.9667C24.49 42.9666 24.49 42.9665 24.49 42.9664C24.49 42.9663 24.49 42.9662 24.49 42.9661C24.49 42.966 24.49 42.9659 24.49 42.9658C24.49 42.9657 24.49 42.9656 24.49 42.9655C24.49 42.9654 24.49 42.9653 24.49 42.9651C24.49 42.965 24.49 42.9649 24.49 42.9648C24.49 42.9647 24.49 42.9646 24.49 42.9645C24.49 42.9644 24.49 42.9643 24.49 42.9642C24.49 42.9641 24.49 42.964 24.49 42.9639C24.49 42.9638 24.49 42.9637 24.49 42.9636C24.49 42.9635 24.49 42.9633 24.49 42.9632C24.49 42.9631 24.49 42.963 24.49 42.9629C24.49 42.9628 24.49 42.9627 24.49 42.9626C24.49 42.9625 24.49 42.9624 24.49 42.9623C24.49 42.9622 24.49 42.9621 24.49 42.962C24.49 42.9619 24.49 42.9618 24.49 42.9617C24.49 42.9615 24.49 42.9614 24.49 42.9613C24.49 42.9612 24.49 42.9611 24.49 42.961C24.49 42.9609 24.49 42.9608 24.49 42.9607C24.49 42.9606 24.49 42.9605 24.49 42.9604C24.49 42.9603 24.49 42.9602 24.49 42.9601C24.49 42.96 24.49 42.9599 24.49 42.9597C24.49 42.9596 24.49 42.9595 24.49 42.9594C24.49 42.9593 24.49 42.9592 24.49 42.9591C24.49 42.959 24.49 42.9589 24.49 42.9588C24.49 42.9587 24.49 42.9586 24.49 42.9585C24.49 42.9584 24.49 42.9583 24.49 42.9582C24.49 42.958 24.49 42.9579 24.49 42.9578C24.49 42.9577 24.49 42.9576 24.49 42.9575C24.49 42.9574 24.49 42.9573 24.49 42.9572C24.49 42.9571 24.49 42.957 24.49 42.9569C24.49 42.9568 24.49 42.9567 24.49 42.9566C24.49 42.9565 24.49 42.9563 24.49 42.9562C24.49 42.9561 24.49 42.956 24.49 42.9559C24.49 42.9558 24.49 42.9557 24.49 42.9556C24.49 42.9555 24.49 42.9554 24.49 42.9553C24.49 42.9552 24.49 42.9551 24.49 42.955C24.49 42.9549 24.49 42.9547 24.49 42.9546C24.49 42.9545 24.49 42.9544 24.49 42.9543C24.49 42.9542 24.49 42.9541 24.49 42.954C24.49 42.9539 24.49 42.9538 24.49 42.9537C24.49 42.9536 24.49 42.9535 24.49 42.9534C24.49 42.9533 24.49 42.9531 24.49 42.953C24.49 42.9529 24.49 42.9528 24.49 42.9527C24.49 42.9526 24.49 42.9525 24.49 42.9524C24.49 42.9523 24.49 42.9522 24.49 42.9521C24.49 42.952 24.49 42.9519 24.49 42.9518C24.49 42.9517 24.49 42.9515 24.49 42.9514C24.49 42.9513 24.49 42.9512 24.49 42.9511C24.49 42.951 24.49 42.9509 24.49 42.9508C24.49 42.9507 24.49 42.9506 24.49 42.9505C24.49 42.9504 24.49 42.9503 24.49 42.9502C24.49 42.9501 24.49 42.9499 24.49 42.9498C24.49 42.9497 24.49 42.9496 24.49 42.9495C24.49 42.9494 24.49 42.9493 24.49 42.9492C24.49 42.9491 24.49 42.949 24.49 42.9489C24.49 42.9488 24.49 42.9487 24.49 42.9486C24.49 42.9485 24.49 42.9483 24.49 42.9482C24.49 42.9481 24.49 42.948 24.49 42.9479C24.49 42.9478 24.49 42.9477 24.49 42.9476C24.49 42.9475 24.49 42.9474 24.49 42.9473C24.49 42.9472 24.49 42.9471 24.49 42.947C24.49 42.9468 24.49 42.9467 24.49 42.9466C24.49 42.9465 24.49 42.9464 24.49 42.9463C24.49 42.9462 24.49 42.9461 24.49 42.946C24.49 42.9459 24.49 42.9458 24.49 42.9457C24.49 42.9456 24.49 42.9455 24.49 42.9453C24.49 42.9452 24.49 42.9451 24.49 42.945C24.49 42.9449 24.49 42.9448 24.49 42.9447C24.49 42.9446 24.49 42.9445 24.49 42.9444C24.49 42.9443 24.49 42.9442 24.49 42.9441C24.49 42.944 24.49 42.9438 24.49 42.9437C24.49 42.9436 24.49 42.9435 24.49 42.9434C24.49 42.9433 24.49 42.9432 24.49 42.9431C24.49 42.943 24.49 42.9429 24.49 42.9428C24.49 42.9427 24.49 42.9426 24.49 42.9425C24.49 42.9423 24.49 42.9422 24.49 42.9421C24.49 42.942 24.49 42.9419 24.49 42.9418C24.49 42.9417 24.49 42.9416 24.49 42.9415C24.49 42.9414 24.49 42.9413 24.49 42.9412C24.49 42.9411 24.49 42.941 24.49 42.9408C24.49 42.9407 24.49 42.9406 24.49 42.9405C24.49 42.9404 24.49 42.9403 24.49 42.9402C24.49 42.9401 24.49 42.94 24.49 42.9399C24.49 42.9398 24.49 42.9397 24.49 42.9396C24.49 42.9395 24.49 42.9393 24.49 42.9392C24.49 42.9391 24.49 42.939 24.49 42.9389C24.49 42.9388 24.49 42.9387 24.49 42.9386C24.49 42.9385 24.49 42.9384 24.49 42.9383C24.49 42.9382 24.49 42.9381 24.49 42.9379C24.49 42.9378 24.49 42.9377 24.49 42.9376C24.49 42.9375 24.49 42.9374 24.49 42.9373C24.49 42.9372 24.49 42.9371 24.49 42.937C24.49 42.9369 24.49 42.9368 24.49 42.9367C24.49 42.9366 24.49 42.9364 24.49 42.9363C24.49 42.9362 24.49 42.9361 24.49 42.936C24.49 42.9359 24.49 42.9358 24.49 42.9357C24.49 42.9356 24.49 42.9355 24.49 42.9354C24.49 42.9353 24.49 42.9352 24.49 42.9351C24.49 42.9349 24.49 42.9348 24.49 42.9347C24.49 42.9346 24.49 42.9345 24.49 42.9344C24.49 42.9343 24.49 42.9342 24.49 42.9341C24.49 42.934 24.49 42.9339 24.49 42.9338C24.49 42.9337 24.49 42.9335 24.49 42.9334C24.49 42.9333 24.49 42.9332 24.49 42.9331C24.49 42.933 24.49 42.9329 24.49 42.9328C24.49 42.9327 24.49 42.9326 24.49 42.9325C24.49 42.9324 24.49 42.9323 24.49 42.9322C24.49 42.932 24.49 42.9319 24.49 42.9318C24.49 42.9317 24.49 42.9316 24.49 42.9315C24.49 42.9314 24.49 42.9313 24.49 42.9312C24.49 42.9311 24.49 42.931 24.49 42.9309C24.49 42.9308 24.49 42.9306 24.49 42.9305C24.49 42.9304 24.49 42.9303 24.49 42.9302C24.49 42.9301 24.49 42.93 24.49 42.9299C24.49 42.9298 24.49 42.9297 24.49 42.9296C24.49 42.9295 24.49 42.9294 24.49 42.9293C24.49 42.9291 24.49 42.929 24.49 42.9289C24.49 42.9288 24.49 42.9287 24.49 42.9286C24.49 42.9285 24.49 42.9284 24.49 42.9283C24.49 42.9282 24.49 42.9281 24.49 42.928C24.49 42.9279 24.49 42.9277 24.49 42.9276C24.49 42.9275 24.49 42.9274 24.49 42.9273C24.49 42.9272 24.49 42.9271 24.49 42.927C24.49 42.9269 24.49 42.9268 24.49 42.9267C24.49 42.9266 24.49 42.9265 24.49 42.9264C24.49 42.9262 24.49 42.9261 24.49 42.926C24.49 42.9259 24.49 42.9258 24.49 42.9257C24.49 42.9256 24.49 42.9255 24.49 42.9254C24.49 42.9253 24.49 42.9252 24.49 42.9251C24.49 42.925 24.49 42.9248 24.49 42.9247C24.49 42.9246 24.49 42.9245 24.49 42.9244C24.49 42.9243 24.49 42.9242 24.49 42.9241C24.49 42.924 24.49 42.9239 24.49 42.9238C24.49 42.9237 24.49 42.9236 24.49 42.9235C24.49 42.9233 24.49 42.9232 24.49 42.9231C24.49 42.923 24.49 42.9229 24.49 42.9228C24.49 42.9227 24.49 42.9226 24.49 42.9225C24.49 42.9224 24.49 42.9223 24.49 42.9222C24.49 42.9221 24.49 42.9219 24.49 42.9218C24.49 42.9217 24.49 42.9216 24.49 42.9215C24.49 42.9214 24.49 42.9213 24.49 42.9212C24.49 42.9211 24.49 42.921 24.49 42.9209C24.49 42.9208 24.49 42.9207 24.49 42.9206C24.49 42.9204 24.49 42.9203 24.49 42.9202C24.49 42.9201 24.49 42.92 24.49 42.9199C24.49 42.9198 24.49 42.9197 24.49 42.9196C24.49 42.9195 24.49 42.9194 24.49 42.9193C24.49 42.9192 24.49 42.9191 24.49 42.9189C24.49 42.9188 24.49 42.9187 24.49 42.9186C24.49 42.9185 24.49 42.9184 24.49 42.9183C24.49 42.9182 24.49 42.9181 24.49 42.918C24.49 42.9179 24.49 42.9178 24.49 42.9177C24.49 42.9176 24.49 42.9174 24.49 42.9173C24.49 42.9172 24.49 42.9171 24.49 42.917C24.49 42.9169 24.49 42.9168 24.49 42.9167C24.49 42.9166 24.49 42.9165 24.49 42.9164C24.49 42.9163 24.49 42.9162 24.49 42.916C24.49 42.9159 24.49 42.9158 24.49 42.9157C24.49 42.9156 24.49 42.9155 24.49 42.9154C24.49 42.9153 24.49 42.9152 24.49 42.9151C24.49 42.915 24.49 42.9149 24.49 42.9148C24.49 42.9147 24.49 42.9146 24.49 42.9144C24.49 42.9143 24.49 42.9142 24.49 42.9141C24.49 42.914 24.49 42.9139 24.49 42.9138C24.49 42.9137 24.49 42.9136 24.49 42.9135C24.49 42.9134 24.49 42.9133 24.49 42.9132C24.49 42.9131 24.49 42.9129 24.49 42.9128C24.49 42.9127 24.49 42.9126 24.49 42.9125C24.49 42.9124 24.49 42.9123 24.49 42.9122C24.49 42.9121 24.49 42.912 24.49 42.9119C24.49 42.9118 24.49 42.9117 24.49 42.9116C24.49 42.9114 24.49 42.9113 24.49 42.9112C24.49 42.9111 24.49 42.911 24.49 42.9109C24.49 42.9108 24.49 42.9107 24.49 42.9106C24.49 42.9105 24.49 42.9104 24.49 42.9103C24.49 42.9102 24.49 42.9101 24.49 42.91C24.49 42.9098 24.49 42.9097 24.49 42.9096C24.49 42.9095 24.49 42.9094 24.49 42.9093C24.49 42.9092 24.49 42.9091 24.49 42.909C24.49 42.9089 24.49 42.9088 24.49 42.9087C24.49 42.9086 24.49 42.9085 24.49 42.9083C24.49 42.9082 24.49 42.9081 24.49 42.908C24.49 42.9079 24.49 42.9078 24.49 42.9077C24.49 42.9076 24.49 42.9075 24.49 42.9074C24.49 42.9073 24.49 42.9072 24.49 42.9071C24.49 42.907 24.49 42.9069 24.49 42.9067C24.49 42.9066 24.49 42.9065 24.49 42.9064C24.49 42.9063 24.49 42.9062 24.49 42.9061C24.49 42.906 24.49 42.9059 24.49 42.9058C24.49 42.9057 24.49 42.9056 24.49 42.9055C24.49 42.9054 24.49 42.9053 24.49 42.9051C24.49 42.905 24.49 42.9049 24.49 42.9048C24.49 42.9047 24.49 42.9046 24.49 42.9045C24.49 42.9044 24.49 42.9043 24.49 42.9042C24.49 42.9041 24.49 42.904 24.49 42.9039C24.49 42.9038 24.49 42.9037 24.49 42.9036C24.49 42.9034 24.49 42.9033 24.49 42.9032C24.49 42.9031 24.49 42.903 24.49 42.9029C24.49 42.9028 24.49 42.9027 24.49 42.9026C24.49 42.9025 24.49 42.9024 24.49 42.9023C24.49 42.9022 24.49 42.9021 24.49 42.902C24.49 42.9018 24.49 42.9017 24.49 42.9016C24.49 42.9015 24.49 42.9014 24.49 42.9013C24.49 42.9012 24.49 42.9011 24.49 42.901C24.49 42.9009 24.49 42.9008 24.49 42.9007C24.49 42.9006 24.49 42.9005 24.49 42.9004C24.49 42.9003 24.49 42.9002 24.49 42.9C24.49 42.8999 24.49 42.8998 24.49 42.8997C24.49 42.8996 24.49 42.8995 24.49 42.8994C24.49 42.8993 24.49 42.8992 24.49 42.8991C24.49 42.899 24.49 42.8989 24.49 42.8988C24.49 42.8987 24.49 42.8986 24.49 42.8985C24.49 42.8983 24.49 42.8982 24.49 42.8981C24.49 42.898 24.49 42.8979 24.49 42.8978C24.49 42.8977 24.49 42.8976 24.49 42.8975C24.49 42.8974 24.49 42.8973 24.49 42.8972C24.49 42.8971 24.49 42.897 24.49 42.8969C24.49 42.8968 24.49 42.8967 24.49 42.8965C24.49 42.8964 24.49 42.8963 24.49 42.8962C24.49 42.8961 24.49 42.896 24.49 42.8959C24.49 42.8958 24.49 42.8957 24.49 42.8956C24.49 42.8955 24.49 42.8954 24.49 42.8953C24.49 42.8952 24.49 42.8951 24.49 42.895C24.49 42.8949 24.49 42.8947 24.49 42.8946C24.49 42.8945 24.49 42.8944 24.49 42.8943C24.49 42.8942 24.49 42.8941 24.49 42.894C24.49 42.8939 24.49 42.8938 24.49 42.8937C24.49 42.8936 24.49 42.8935 24.49 42.8934C24.49 42.8933 24.49 42.8932 24.49 42.8931C24.49 42.893 24.49 42.8929 24.49 42.8927C24.49 42.8926 24.49 42.8925 24.49 42.8924C24.49 42.8923 24.49 42.8922 24.49 42.8921C24.49 42.892 24.49 42.8919 24.49 42.8918C24.49 42.8917 24.49 42.8916 24.49 42.8915C24.49 42.8914 24.49 42.8913 24.49 42.8912C24.49 42.8911 24.49 42.891 24.49 42.8908C24.49 42.8907 24.49 42.8906 24.49 42.8905C24.49 42.8904 24.49 42.8903 24.49 42.8902C24.49 42.8901 24.49 42.89 24.49 42.8899C24.49 42.8898 24.49 42.8897 24.49 42.8896C24.49 42.8895 24.49 42.8894 24.49 42.8893C24.49 42.8892 24.49 42.8891 24.49 42.889C24.49 42.8889 24.49 42.8887 24.49 42.8886C24.49 42.8885 24.49 42.8884 24.49 42.8883C24.49 42.8882 24.49 42.8881 24.49 42.888C24.49 42.8879 24.49 42.8878 24.49 42.8877C24.49 42.8876 24.49 42.8875 24.49 42.8874C24.49 42.8873 24.49 42.8872 24.49 42.8871C24.49 42.887 24.49 42.8869 24.49 42.8868C24.49 42.8867 24.49 42.8865 24.49 42.8864C24.49 42.8863 24.49 42.8862 24.49 42.8861C24.49 42.886 24.49 42.8859 24.49 42.8858C24.49 42.8857 24.49 42.8856 24.49 42.8855C24.49 42.8854 24.49 42.8853 24.49 42.8852C24.49 42.8851 24.49 42.885 24.49 42.8849C24.49 42.8848 24.49 42.8847 24.49 42.8846C24.49 42.8845 24.49 42.8844 24.49 42.8842C24.49 42.8841 24.49 42.884 24.49 42.8839C24.49 42.8838 24.49 42.8837 24.49 42.8836C24.49 42.8835 24.49 42.8834 24.49 42.8833C24.49 42.8832 24.49 42.8831 24.49 42.883C24.49 42.8829 24.49 42.8828 24.49 42.8827C24.49 42.8826 24.49 42.8825 24.49 42.8824C24.49 42.8823 24.49 42.8822 24.49 42.8821C24.49 42.882 24.49 42.8819 24.49 42.8817C24.49 42.8816 24.49 42.8815 24.49 42.8814C24.49 42.8813 24.49 42.8812 24.49 42.8811C24.49 42.881 24.49 42.8809 24.49 42.8808C24.49 42.8807 24.49 42.8806 24.49 42.8805C24.49 42.8804 24.49 42.8803 24.49 42.8802C24.49 42.8801 24.49 42.88 24.49 42.8799C24.49 42.8798 24.49 42.8797 24.49 42.8796C24.49 42.8795 24.49 42.8794 24.49 42.8793C24.49 42.8792 24.49 42.879 24.49 42.8789C24.49 42.8788 24.49 42.8787 24.49 42.8786C24.49 42.8785 24.49 42.8784 24.49 42.8783C24.49 42.8782 24.49 42.8781 24.49 42.878C24.49 42.8779 24.49 42.8778 24.49 42.8777C24.49 42.8776 24.49 42.8775 24.49 42.8774C24.49 42.8773 24.49 42.8772 24.49 42.8771C24.49 42.877 24.49 42.8769 24.49 42.8768C24.49 42.8767 24.49 42.8766 24.49 42.8765C24.49 42.8764 24.49 42.8763 24.49 42.8762C24.49 42.876 24.49 42.8759 24.49 42.8758C24.49 42.8757 24.49 42.8756 24.49 42.8755C24.49 42.8754 24.49 42.8753 24.49 42.8752C24.49 42.8751 24.49 42.875 24.49 42.8749C24.49 42.8748 24.49 42.8747 24.49 42.8746C24.49 42.8745 24.49 42.8744 24.49 42.8743C24.49 42.8742 24.49 42.8741 24.49 42.874C24.49 42.8739 24.49 42.8738 24.49 42.8737C24.49 42.8736 24.49 42.8735 24.49 42.8734C24.49 42.8733 24.49 42.8732 24.49 42.8731C24.49 42.873 24.49 42.8729 24.49 42.8728C24.49 42.8727 24.49 42.8726 24.49 42.8724C24.49 42.8723 24.49 42.8722 24.49 42.8721C24.49 42.872 24.49 42.8719 24.49 42.8718C24.49 42.8717 24.49 42.8716 24.49 42.8715C24.49 42.8714 24.49 42.8713 24.49 42.8712C24.49 42.8711 24.49 42.871 24.49 42.8709C24.49 42.8708 24.49 42.8707 24.49 42.8706C24.49 42.8705 24.49 42.8704 24.49 42.8703C24.49 42.8702 24.49 42.8701 24.49 42.87C24.49 42.8699 24.49 42.8698 24.49 42.8697C24.49 42.8696 24.49 42.8695 24.49 42.8694C24.49 42.8693 24.49 42.8692 24.49 42.8691C24.49 42.869 24.49 42.8689 24.49 42.8688C24.49 42.8687 24.49 42.8686 24.49 42.8685C24.49 42.8684 24.49 42.8683 24.49 42.8682C24.49 42.8681 24.49 42.868 24.49 42.8679C24.49 42.8678 24.49 42.8676 24.49 42.8675C24.49 42.8674 24.49 42.8673 24.49 42.8672C24.49 42.8671 24.49 42.867 24.49 42.8669C24.49 42.8668 24.49 42.8667 24.49 42.8666C24.49 42.8665 24.49 42.8664 24.49 42.8663C24.49 42.8662 24.49 42.8661 24.49 42.866C24.49 42.8659 24.49 42.8658 24.49 42.8657C24.49 42.8656 24.49 42.8655 24.49 42.8654C24.49 42.8653 24.49 42.8652 24.49 42.8651C24.49 42.865 24.49 42.8649 24.49 42.8648C24.49 42.8647 24.49 42.8646 24.49 42.8645C24.49 42.8644 24.49 42.8643 24.49 42.8642C24.49 42.8641 24.49 42.864 24.49 42.8639C24.49 42.8638 24.49 42.8637 24.49 42.8636C24.49 42.8635 24.49 42.8634 24.49 42.8633C24.49 42.8632 24.49 42.8631 24.49 42.863C24.49 42.8629 24.49 42.8628 24.49 42.8627C24.49 42.8626 24.49 42.8625 24.49 42.8624C24.49 42.8623 24.49 42.8622 24.49 42.8621C24.49 42.862 24.49 42.8619 24.49 42.8618C24.49 42.8617 24.49 42.8616 24.49 42.8615C24.49 42.8614 24.49 42.8613 24.49 42.8612C24.49 42.8611 24.49 42.861 24.49 42.8609C24.49 42.8608 24.49 42.8607 24.49 42.8606C24.49 42.8605 24.49 42.8604 24.49 42.8603C24.49 42.8602 24.49 42.8601 24.49 42.86C24.49 42.8599 24.49 42.8598 24.49 42.8597C24.49 42.8596 24.49 42.8595 24.49 42.8594C24.49 42.8593 24.49 42.8592 24.49 42.8591C24.49 42.859 24.49 42.8589 24.49 42.8588C24.49 42.8587 24.49 42.8586 24.49 42.8585C24.49 42.8584 24.49 42.8583 24.49 42.8582C24.49 42.8581 24.49 42.858 24.49 42.8579C24.49 42.8578 24.49 42.8577 24.49 42.8576C24.49 42.8575 24.49 42.8574 24.49 42.8573C24.49 42.8572 24.49 42.8571 24.49 42.857C24.49 42.8569 24.49 42.8568 24.49 42.8567C24.49 42.8566 24.49 42.8565 24.49 42.8564C24.49 42.8563 24.49 42.8562 24.49 42.8561C24.49 42.856 24.49 42.8559 24.49 42.8558C24.49 42.8557 24.49 42.8556 24.49 42.8555C24.49 42.8554 24.49 42.8553 24.49 42.8552C24.49 42.8551 24.49 42.855 24.49 42.8549C24.49 42.8548 24.49 42.8547 24.49 42.8546C24.49 42.8545 24.49 42.8544 24.49 42.8543C24.49 42.8542 24.49 42.8541 24.49 42.854C24.49 42.8539 24.49 42.8538 24.49 42.8537C24.49 42.8536 24.49 42.8535 24.49 42.8534C24.49 42.8533 24.49 42.8532 24.49 42.8531C24.49 42.853 24.49 42.8529 24.49 42.8528C24.49 42.8527 24.49 42.8526 24.49 42.8525C24.49 42.8524 24.49 42.8523 24.49 42.8522C24.49 42.8521 24.49 42.852 24.49 42.852C24.49 42.8519 24.49 42.8518 24.49 42.8517C24.49 42.8516 24.49 42.8515 24.49 42.8514C24.49 42.8513 24.49 42.8512 24.49 42.8511C24.49 42.851 24.49 42.8509 24.49 42.8508C24.49 42.8507 24.49 42.8506 24.49 42.8505C24.49 42.8504 24.49 42.8503 24.49 42.8502C24.49 42.8501 24.49 42.85 24.49 42.8499H18.49ZM18.49 43.0099C18.49 50.538 23.7967 57.0278 31.186 58.5205L32.374 52.6393C27.7833 51.712 24.49 47.6818 24.49 43.0099H18.49ZM30.9984 52.6835C29.5406 53.0769 28.022 53.1363 26.5577 52.8541L25.4223 58.7457C27.798 59.2035 30.2394 59.1029 32.5616 58.4763L30.9984 52.6835ZM23.1343 56.719C25.2068 63.1587 31.1402 67.5737 37.9099 67.7093L38.0301 61.7105C33.8198 61.6261 30.1332 58.8811 28.8457 54.8808L23.1343 56.719ZM36.1156 62.3517C32.1044 65.5059 27.1491 67.2187 22.0552 67.2099L22.0448 73.2099C28.4909 73.2211 34.7556 71.0539 39.8244 67.0681L36.1156 62.3517ZM22.05 67.2099C21.1472 67.2099 20.2556 67.1568 19.383 67.0444L18.617 72.9953C19.7644 73.143 20.9128 73.2099 22.05 73.2099V67.2099ZM17.3729 72.5403C23.7013 76.6256 31.0983 78.7907 38.6343 78.7799L38.6257 72.7799C32.2417 72.7891 25.9787 70.9542 20.6271 67.4994L17.3729 72.5403Z" fill="white" mask="url(#path-2-inside-1_256_750)"/>
  </symbol>
  <symbol viewBox="0 0 100 100" fill="none" xmlns="http://www.w3.org/2000/svg" id="telegram">
    <path d="M62.6875 93.5H36.8125C12.3344 93.5 6 87.1656 6 62.6875V36.8125C6 12.3344 12.3344 6 36.8125 6H62.6844C87.1656 6 93.5 12.3344 93.5 36.8125V62.6875C93.5 87.1656 87.1656 93.5 62.6875 93.5ZM36.8125 9.125C14.0406 9.125 9.125 14.0406 9.125 36.8125V62.6875C9.125 85.4594 14.0406 90.375 36.8125 90.375H62.6844C85.4563 90.375 90.3719 85.4594 90.3719 62.6875V36.8125C90.375 14.0406 85.4594 9.125 62.6875 9.125H36.8125Z" fill="white"/>
    <path d="M79.8206 28.8248L70.3135 73.8008C69.5961 76.9751 67.7257 77.7647 65.0676 76.2699L50.5818 65.5617L43.5924 72.3052C42.819 73.0812 42.1719 73.7304 40.6811 73.7304L41.7218 58.931L68.5696 34.5949C69.7371 33.5509 68.3165 32.9724 66.7553 34.0165L33.5648 54.9808L19.276 50.4945C16.1679 49.5209 16.1118 47.3765 19.9229 45.8812L75.8123 24.2823C78.3999 23.3088 80.6642 24.8605 79.8206 28.8248Z" stroke="white" stroke-width="3" stroke-miterlimit="10" stroke-linecap="round" stroke-linejoin="round"/>
  </symbol>
  <symbol viewBox="0 0 100 100" fill="none" xmlns="http://www.w3.org/2000/svg" id="ok">
    <path d="M62.6875 93.5H36.8125C12.3344 93.5 6 87.1656 6 62.6875V36.8125C6 12.3344 12.3344 6 36.8125 6H62.6844C87.1656 6 93.5 12.3344 93.5 36.8125V62.6875C93.5 87.1656 87.1656 93.5 62.6875 93.5ZM36.8125 9.125C14.0406 9.125 9.125 14.0406 9.125 36.8125V62.6875C9.125 85.4594 14.0406 90.375 36.8125 90.375H62.6844C85.4563 90.375 90.3719 85.4594 90.3719 62.6875V36.8125C90.375 14.0406 85.4594 9.125 62.6875 9.125H36.8125Z" fill="white"/>
    <path d="M63.5939 34.8947C63.5939 42.5687 57.374 48.7894 49.7004 48.7894C42.0255 48.7894 35.8057 42.5684 35.8057 34.8947C35.8057 27.221 42.0255 21 49.7004 21C57.3739 21 63.5939 27.2209 63.5939 34.8947ZM58.0279 34.8947C58.0279 30.295 54.2986 26.5672 49.7004 26.5672C45.101 26.5672 41.3716 30.2949 41.3716 34.8947C41.3716 39.4945 45.101 43.2222 49.7004 43.2222C54.2986 43.2222 58.0279 39.4944 58.0279 34.8947Z" stroke="white" stroke-width="2"/>
    <path d="M49.7004 54.3973C49.7004 55.3973 49.7006 55.3973 49.7009 55.3973L49.7016 55.3973L49.7035 55.3973L49.7091 55.3973L49.7276 55.3972C49.7431 55.3971 49.765 55.3968 49.7929 55.3964C49.8487 55.3955 49.9287 55.3937 50.0308 55.3903C50.2348 55.3835 50.5272 55.3699 50.8895 55.3431C51.6133 55.2894 52.6217 55.1824 53.767 54.9681C56.0337 54.544 58.9452 53.6805 61.2231 51.8855L60.6043 51.1003L61.2232 51.8854C62.5965 50.803 63.6456 50.6839 64.3484 50.8524C65.0824 51.0284 65.6589 51.5692 65.9733 52.2015L65.9736 52.202C66.2948 52.8471 66.4041 53.3285 66.3992 53.7056C66.3946 54.0661 66.285 54.4068 66.0299 54.781C65.4672 55.6061 64.3081 56.4574 62.4 57.6821L62.3997 57.6823C59.4425 59.5819 55.3022 60.3347 52.4968 60.623L50.4049 60.8379L51.8919 62.3249L54.2638 64.6968L54.2638 64.6968L63.0421 73.4744C63.0421 73.4745 63.0421 73.4745 63.0421 73.4745C63.9844 74.4168 63.9851 75.9457 63.0418 76.8906C63.0417 76.8906 63.0417 76.8907 63.0416 76.8908L62.6399 77.2922L62.6398 77.2923C61.6959 78.236 60.1667 78.2358 59.2233 77.2924L50.4469 68.5162L49.7398 67.8092L49.0327 68.5161L40.2551 77.2923L40.2548 77.2926C39.3124 78.2356 37.7834 78.2361 36.8393 77.2923L36.8392 77.2922L36.4369 76.8901L36.4368 76.89C35.4937 75.9476 35.4936 74.4173 36.4368 73.4747L36.4371 73.4744L37.11 72.8014C39.2895 70.6215 42.204 67.7064 45.2133 64.6982L45.2134 64.6981L47.5788 62.3331L49.0694 60.8428L46.9722 60.631C44.1688 60.348 39.9833 59.5982 36.9994 57.6824L36.9992 57.6822C35.0909 56.4576 33.9319 55.6063 33.3694 54.7813C33.1143 54.4071 33.0048 54.0664 33.0002 53.7058C32.9953 53.3287 33.1046 52.8473 33.4258 52.2021L33.4259 52.2018C33.7406 51.569 34.317 51.0283 35.0508 50.8523C35.7534 50.6838 36.8026 50.803 38.1768 51.8855C40.4545 53.6805 43.3662 54.544 45.6331 54.9681C46.7786 55.1824 47.7871 55.2894 48.511 55.3431C48.8734 55.3699 49.1658 55.3835 49.3699 55.3903C49.4719 55.3937 49.552 55.3955 49.6078 55.3964C49.6358 55.3968 49.6576 55.3971 49.6731 55.3972L49.6916 55.3973L49.6972 55.3973L49.6991 55.3973L49.6998 55.3973C49.7001 55.3973 49.7004 55.3973 49.7004 54.3973Z" stroke="white" stroke-width="2"/>
  </symbol>
    <symbol viewBox="0 0 100 100" fill="none" xmlns="http://www.w3.org/2000/svg" id="link">
      <path d="M62.6875 93.5H36.8125C12.3344 93.5 6 87.1656 6 62.6875V36.8125C6 12.3344 12.3344 6 36.8125 6H62.6844C87.1656 6 93.5 12.3344 93.5 36.8125V62.6875C93.5 87.1656 87.1656 93.5 62.6875 93.5ZM36.8125 9.125C14.0406 9.125 9.125 14.0406 9.125 36.8125V62.6875C9.125 85.4594 14.0406 90.375 36.8125 90.375H62.6844C85.4563 90.375 90.3719 85.4594 90.3719 62.6875V36.8125C90.375 14.0406 85.4594 9.125 62.6875 9.125H36.8125Z" fill="white"/>
      <path d="M35.6826 74.0633C33.0724 74.0633 30.6185 73.0457 28.7732 71.2004L26.7981 69.2281C22.9889 65.4189 22.9889 59.2186 26.7981 55.4108L39.6286 42.5803C41.4739 40.735 43.9278 39.7174 46.538 39.7174C49.1482 39.7174 51.6021 40.735 53.446 42.5803L55.4197 44.554C55.9655 45.0997 55.9655 45.9819 55.4197 46.5277C54.8739 47.0734 53.9918 47.0734 53.446 46.5277L51.4723 44.554C50.1546 43.2363 48.4015 42.5091 46.538 42.5091C44.6732 42.5091 42.92 43.2363 41.6024 44.554L28.7719 57.3831C26.0514 60.1036 26.0514 64.5311 28.7719 67.253L30.7456 69.2267C32.0632 70.5444 33.8164 71.2716 35.6812 71.2716C37.5447 71.2716 39.2978 70.5444 40.6155 69.2267L49.5 60.3436C50.0457 59.7979 50.9279 59.7979 51.4737 60.3436C52.0195 60.8894 52.0195 61.7716 51.4737 62.3173L42.5906 71.2004C40.7467 73.0471 38.2928 74.0633 35.6826 74.0633Z" fill="white"/>
      <path d="M52.4606 57.284C49.8517 57.284 47.3965 56.2664 45.5526 54.4211C45.0068 53.8753 45.0068 52.9932 45.5526 52.4474C46.0983 51.9016 46.9805 51.9016 47.5263 52.4474C48.844 53.7651 50.5971 54.4923 52.4606 54.4923C54.3254 54.4923 56.0786 53.7651 57.3962 52.4474L70.2267 39.6169C72.9472 36.8964 72.9472 32.4688 70.2267 29.7484L68.2544 27.7719C65.5339 25.0514 61.105 25.0514 58.3845 27.7719L49.5 36.6563C48.9542 37.2021 48.0721 37.2021 47.5263 36.6563C46.9805 36.1106 46.9805 35.2284 47.5263 34.6826L56.4094 25.7995C60.2186 21.9903 66.4175 21.9903 70.2267 25.7995L72.2004 27.7747C76.0097 31.5839 76.0097 37.7828 72.2004 41.5906L59.3699 54.4211C57.526 56.2664 55.0708 57.284 52.4606 57.284Z" fill="white"/>
  </symbol>
</svg>