<svg width="0" height="0" class="hidden">
  <symbol viewBox="0 0 1300 955" fill="none" xmlns="http://www.w3.org/2000/svg" id="star1">
    <path fill-rule="evenodd" clip-rule="evenodd" d="M1151.44 727.52C1151.82 727.623 1152.23 727.569 1152.58 727.371C1152.92 727.172 1153.17 726.844 1153.28 726.46C1153.38 726.075 1153.32 725.666 1153.13 725.322C1152.93 724.977 1152.6 724.726 1152.21 724.623C1151.83 724.52 1151.42 724.574 1151.08 724.772C1150.73 724.971 1150.48 725.299 1150.38 725.683C1150.27 726.068 1150.33 726.477 1150.53 726.821C1150.73 727.166 1151.05 727.417 1151.44 727.52Z" fill="white"/>
    <path fill-rule="evenodd" clip-rule="evenodd" d="M759.974 681.639C760.261 681.715 760.564 681.706 760.845 681.61C761.126 681.515 761.372 681.338 761.552 681.103C761.733 680.868 761.84 680.584 761.859 680.288C761.879 679.992 761.81 679.697 761.661 679.44C761.513 679.183 761.292 678.976 761.026 678.845C760.76 678.713 760.461 678.664 760.167 678.703C759.872 678.741 759.597 678.866 759.373 679.062C759.15 679.258 758.99 679.515 758.914 679.802C758.811 680.186 758.865 680.595 759.063 680.94C759.262 681.284 759.59 681.536 759.974 681.639Z" fill="white"/>
    <path d="M799.657 168.422C799.514 168.955 798.966 169.272 798.433 169.129C797.899 168.986 797.583 168.438 797.726 167.904C797.868 167.371 798.417 167.054 798.95 167.197C799.484 167.34 799.8 167.888 799.657 168.422Z" fill="white"/>
    <path fill-rule="evenodd" clip-rule="evenodd" d="M57.749 464.49C58.0052 464.559 58.2782 464.523 58.5079 464.39C58.7376 464.258 58.9052 464.039 58.9738 463.783C59.0425 463.527 59.0065 463.254 58.8739 463.024C58.7413 462.795 58.5228 462.627 58.2667 462.558C58.0105 462.49 57.7376 462.526 57.5079 462.658C57.2782 462.791 57.1106 463.009 57.042 463.265C56.9733 463.522 57.0092 463.795 57.1419 464.024C57.2745 464.254 57.4928 464.422 57.749 464.49Z" fill="white"/>
    <path d="M768.772 677.784C768.629 678.318 768.08 678.634 767.547 678.491C767.013 678.348 766.697 677.8 766.84 677.267C766.983 676.733 767.531 676.417 768.064 676.56C768.598 676.703 768.915 677.251 768.772 677.784Z" fill="white"/>
    <path d="M103.582 436.395C103.439 436.929 102.891 437.245 102.358 437.102C101.824 436.96 101.507 436.411 101.65 435.878C101.793 435.344 102.342 435.028 102.875 435.171C103.409 435.314 103.725 435.862 103.582 436.395Z" fill="white"/>
    <path fill-rule="evenodd" clip-rule="evenodd" d="M132.837 427.67C133.093 427.738 133.366 427.703 133.596 427.57C133.825 427.437 133.993 427.219 134.062 426.963C134.13 426.707 134.094 426.434 133.962 426.204C133.829 425.974 133.611 425.807 133.355 425.738C133.098 425.669 132.825 425.705 132.596 425.838C132.366 425.971 132.198 426.189 132.13 426.445C132.061 426.701 132.097 426.974 132.23 427.204C132.362 427.434 132.581 427.601 132.837 427.67Z" fill="white"/>
    <path fill-rule="evenodd" clip-rule="evenodd" d="M80.673 471.668C80.864 471.719 81.066 471.712 81.2532 471.649C81.4405 471.585 81.6047 471.467 81.7251 471.311C81.8454 471.154 81.9167 470.965 81.9296 470.767C81.9425 470.57 81.8966 470.373 81.7977 470.202C81.6989 470.031 81.5514 469.892 81.374 469.805C81.1966 469.718 80.9974 469.685 80.8013 469.71C80.6052 469.736 80.4212 469.82 80.2725 469.95C80.1238 470.08 80.0171 470.252 79.9659 470.443C79.9298 470.57 79.9196 470.703 79.9358 470.834C79.952 470.964 79.9943 471.091 80.0602 471.205C80.1262 471.319 80.2145 471.419 80.3197 471.498C80.425 471.578 80.5451 471.636 80.673 471.668Z" fill="white"/>
    <path fill-rule="evenodd" clip-rule="evenodd" d="M245.467 509.613C245.658 509.664 245.86 509.657 246.047 509.594C246.234 509.53 246.399 509.412 246.519 509.255C246.639 509.099 246.711 508.91 246.724 508.712C246.736 508.515 246.691 508.318 246.592 508.147C246.493 507.975 246.345 507.837 246.168 507.75C245.991 507.662 245.791 507.629 245.595 507.655C245.399 507.681 245.215 507.765 245.066 507.895C244.918 508.025 244.811 508.197 244.76 508.388C244.691 508.644 244.727 508.917 244.86 509.147C244.992 509.376 245.211 509.544 245.467 509.613Z" fill="white"/>
    <path fill-rule="evenodd" clip-rule="evenodd" d="M71.5127 482.672C71.787 482.714 72.063 482.666 72.2886 482.536C72.5142 482.405 72.6738 482.202 72.7375 481.965C72.8011 481.727 72.7644 481.472 72.6342 481.246C72.5039 481.02 72.2891 480.84 72.0303 480.74C71.756 480.698 71.4801 480.746 71.2545 480.876C71.0289 481.007 70.8693 481.21 70.8056 481.447C70.742 481.685 70.7787 481.94 70.9089 482.166C71.0392 482.392 71.2539 482.572 71.5127 482.672Z" fill="white"/>
    <path fill-rule="evenodd" clip-rule="evenodd" d="M1246.03 395.696C1246.22 395.75 1246.42 395.746 1246.61 395.684C1246.8 395.622 1246.97 395.505 1247.09 395.348C1247.21 395.191 1247.29 395.001 1247.3 394.803C1247.31 394.604 1247.27 394.406 1247.17 394.234C1247.07 394.061 1246.92 393.922 1246.74 393.835C1246.56 393.748 1246.36 393.716 1246.16 393.743C1245.97 393.771 1245.78 393.856 1245.63 393.989C1245.49 394.122 1245.38 394.296 1245.33 394.489C1245.27 394.741 1245.31 395.008 1245.44 395.234C1245.57 395.459 1245.78 395.625 1246.03 395.696Z" fill="white"/>
    <path fill-rule="evenodd" clip-rule="evenodd" d="M54.7983 481.299C54.9264 481.334 55.0629 481.316 55.1777 481.249C55.2926 481.183 55.3764 481.074 55.4107 480.946C55.4451 480.818 55.4271 480.681 55.3607 480.566C55.2944 480.451 55.1852 480.368 55.0571 480.333C54.929 480.299 54.7926 480.317 54.6777 480.383C54.5629 480.45 54.4791 480.559 54.4448 480.687C54.4105 480.815 54.4284 480.951 54.4947 481.066C54.561 481.181 54.6702 481.265 54.7983 481.299Z" fill="white"/>
    <path d="M1237.55 388.765C1237.48 389.031 1237.2 389.19 1236.94 389.118C1236.67 389.047 1236.51 388.773 1236.58 388.506C1236.65 388.239 1236.93 388.081 1237.2 388.152C1237.46 388.224 1237.62 388.498 1237.55 388.765Z" fill="white"/>
    <path fill-rule="evenodd" clip-rule="evenodd" d="M753.435 709.909C753.563 709.944 753.7 709.926 753.814 709.859C753.929 709.793 754.013 709.684 754.047 709.556C754.082 709.428 754.064 709.291 753.997 709.176C753.931 709.062 753.822 708.978 753.694 708.943C753.566 708.909 753.429 708.927 753.315 708.993C753.2 709.06 753.116 709.169 753.082 709.297C753.047 709.425 753.065 709.562 753.132 709.676C753.198 709.791 753.307 709.875 753.435 709.909Z" fill="white"/>
    <path d="M1184.25 730.619C1184.18 730.886 1183.91 731.044 1183.64 730.973C1183.38 730.901 1183.22 730.627 1183.29 730.361C1183.36 730.094 1183.63 729.936 1183.9 730.007C1184.17 730.079 1184.33 730.353 1184.25 730.619Z" fill="white"/>
    <path fill-rule="evenodd" clip-rule="evenodd" d="M1151.65 715.153C1151.74 715.178 1151.84 715.175 1151.94 715.143C1152.03 715.112 1152.11 715.053 1152.17 714.974C1152.23 714.896 1152.27 714.801 1152.27 714.703C1152.28 714.604 1152.26 714.506 1152.21 714.42C1152.16 714.334 1152.09 714.265 1152 714.221C1151.91 714.178 1151.81 714.161 1151.71 714.174C1151.61 714.187 1151.52 714.229 1151.45 714.294C1151.37 714.359 1151.32 714.445 1151.29 714.54C1151.26 714.669 1151.28 714.805 1151.34 714.92C1151.41 715.035 1151.52 715.118 1151.65 715.153Z" fill="white"/>
    <path fill-rule="evenodd" clip-rule="evenodd" d="M760.821 674.618C760.916 674.644 761.017 674.641 761.111 674.609C761.205 674.577 761.287 674.518 761.347 674.44C761.407 674.361 761.443 674.267 761.449 674.168C761.456 674.069 761.433 673.971 761.383 673.885C761.334 673.8 761.26 673.731 761.171 673.687C761.083 673.643 760.983 673.627 760.885 673.64C760.787 673.653 760.695 673.694 760.62 673.759C760.546 673.825 760.493 673.91 760.467 674.006C760.433 674.134 760.451 674.271 760.517 674.385C760.584 674.5 760.693 674.584 760.821 674.618Z" fill="white"/>
    <path d="M65.9156 476.514C65.8441 476.78 65.57 476.939 65.3032 476.867C65.0365 476.796 64.8782 476.521 64.9497 476.255C65.0212 475.988 65.2953 475.83 65.5621 475.901C65.8288 475.973 65.9871 476.247 65.9156 476.514Z" fill="white"/>
    <path d="M762.137 683.299C761.893 683.439 761.582 683.356 761.442 683.113C761.302 682.87 761.385 682.559 761.628 682.419C761.871 682.278 762.182 682.362 762.323 682.605C762.463 682.848 762.38 683.159 762.137 683.299Z" fill="white"/>
    <path fill-rule="evenodd" clip-rule="evenodd" d="M48.3303 476.46C48.522 476.512 48.7245 476.505 48.9123 476.441C49.1 476.377 49.2645 476.258 49.3846 476.1C49.5048 475.942 49.5753 475.752 49.5871 475.554C49.599 475.356 49.5517 475.159 49.4512 474.988C49.3507 474.817 49.2016 474.679 49.0228 474.593C48.8441 474.507 48.6437 474.476 48.4473 474.504C48.2509 474.533 48.0673 474.618 47.9198 474.751C47.7724 474.884 47.6677 475.058 47.6193 475.25C47.5551 475.505 47.5937 475.774 47.7267 476.001C47.8598 476.227 48.0766 476.392 48.3303 476.46Z" fill="white"/>
    <path fill-rule="evenodd" clip-rule="evenodd" d="M745.95 693.41C746.225 693.452 746.501 693.404 746.726 693.274C746.952 693.144 747.111 692.941 747.175 692.703C747.239 692.465 747.202 692.21 747.072 691.984C746.941 691.759 746.727 691.579 746.468 691.478C746.194 691.436 745.918 691.484 745.692 691.614C745.466 691.745 745.307 691.948 745.243 692.185C745.179 692.423 745.216 692.678 745.346 692.904C745.477 693.13 745.691 693.31 745.95 693.41Z" fill="white"/>
    <path fill-rule="evenodd" clip-rule="evenodd" d="M757.232 686.08C757.423 686.131 757.625 686.125 757.812 686.061C757.999 685.998 758.163 685.88 758.284 685.723C758.404 685.566 758.475 685.377 758.488 685.18C758.501 684.982 758.455 684.785 758.357 684.614C758.258 684.443 758.11 684.305 757.933 684.217C757.755 684.13 757.556 684.097 757.36 684.123C757.164 684.149 756.98 684.232 756.831 684.362C756.682 684.493 756.576 684.664 756.525 684.855C756.456 685.112 756.492 685.385 756.624 685.614C756.757 685.844 756.975 686.011 757.232 686.08Z" fill="white"/>
    <path d="M1179.09 742.176C1178.94 742.709 1178.4 743.026 1177.86 742.883C1177.33 742.74 1177.01 742.192 1177.16 741.658C1177.3 741.125 1177.85 740.808 1178.38 740.951C1178.91 741.094 1179.23 741.642 1179.09 742.176Z" fill="white"/>
    <path fill-rule="evenodd" clip-rule="evenodd" d="M195.587 446.554C195.874 446.631 196.169 446.65 196.436 446.607C196.703 446.565 196.929 446.464 197.086 446.317C197.243 446.17 197.324 445.983 197.318 445.781C197.312 445.578 197.22 445.369 197.054 445.18C196.887 444.991 196.654 444.829 196.383 444.717C196.112 444.604 195.815 444.545 195.531 444.548C195.247 444.55 194.987 444.613 194.785 444.729C194.584 444.845 194.449 445.009 194.397 445.2C194.329 445.456 194.416 445.743 194.639 445.997C194.862 446.251 195.203 446.451 195.587 446.554Z" fill="white"/>
    <path fill-rule="evenodd" clip-rule="evenodd" d="M126.391 378.32C126.647 378.388 126.92 378.352 127.15 378.22C127.379 378.087 127.547 377.869 127.615 377.613C127.684 377.356 127.648 377.084 127.516 376.854C127.383 376.624 127.165 376.457 126.908 376.388C126.652 376.319 126.379 376.355 126.149 376.488C125.92 376.62 125.752 376.839 125.684 377.095C125.615 377.351 125.651 377.624 125.783 377.854C125.916 378.083 126.135 378.251 126.391 378.32Z" fill="white"/>
    <path fill-rule="evenodd" clip-rule="evenodd" d="M1122.48 733.219C1122.75 733.261 1123.03 733.213 1123.25 733.082C1123.48 732.952 1123.64 732.749 1123.7 732.512C1123.77 732.274 1123.73 732.018 1123.6 731.793C1123.47 731.567 1123.25 731.387 1122.99 731.287C1122.72 731.244 1122.44 731.293 1122.22 731.423C1121.99 731.553 1121.83 731.756 1121.77 731.994C1121.71 732.232 1121.74 732.487 1121.87 732.713C1122 732.938 1122.22 733.118 1122.48 733.219Z" fill="white"/>
    <path fill-rule="evenodd" clip-rule="evenodd" d="M212.561 446.961C212.817 447.03 213.09 446.994 213.319 446.861C213.549 446.729 213.717 446.51 213.785 446.254C213.854 445.998 213.818 445.725 213.685 445.495C213.553 445.266 213.334 445.098 213.078 445.029C212.822 444.961 212.549 444.997 212.319 445.129C212.09 445.262 211.922 445.48 211.853 445.736C211.785 445.993 211.821 446.266 211.953 446.495C212.086 446.725 212.304 446.893 212.561 446.961Z" fill="white"/>
    <path fill-rule="evenodd" clip-rule="evenodd" d="M756.548 653.803C756.739 653.858 756.942 653.854 757.132 653.792C757.321 653.73 757.487 653.613 757.609 653.456C757.732 653.299 757.804 653.109 757.818 652.91C757.832 652.712 757.786 652.514 757.687 652.341C757.587 652.169 757.438 652.03 757.26 651.943C757.081 651.855 756.88 651.823 756.683 651.851C756.486 651.878 756.301 651.964 756.153 652.097C756.005 652.23 755.9 652.404 755.851 652.597C755.783 652.849 755.819 653.118 755.949 653.344C756.08 653.57 756.295 653.736 756.548 653.803Z" fill="white"/>
    <path d="M479.839 520.896C478.977 521.394 477.875 521.099 477.377 520.237C476.88 519.375 477.175 518.272 478.037 517.775C478.899 517.277 480.001 517.573 480.499 518.435C480.997 519.297 480.701 520.399 479.839 520.896Z" fill="white"/>
    <path d="M81.5217 623.046C81.3787 623.579 80.8303 623.896 80.2969 623.753C79.7634 623.61 79.4469 623.061 79.5898 622.528C79.7328 621.995 80.281 621.678 80.8145 621.821C81.348 621.964 81.6646 622.512 81.5217 623.046Z" fill="white"/>
    <path d="M296.772 708.149C295.91 708.647 294.807 708.352 294.31 707.49C293.812 706.628 294.107 705.525 294.969 705.028C295.831 704.53 296.934 704.825 297.431 705.687C297.929 706.549 297.634 707.652 296.772 708.149Z" fill="white"/>
    <path fill-rule="evenodd" clip-rule="evenodd" d="M496.874 488.979C497.16 489.055 497.463 489.045 497.744 488.95C498.025 488.855 498.272 488.678 498.452 488.443C498.633 488.207 498.739 487.924 498.759 487.628C498.778 487.332 498.709 487.037 498.561 486.78C498.413 486.523 498.192 486.316 497.925 486.184C497.659 486.053 497.36 486.004 497.066 486.042C496.772 486.081 496.496 486.206 496.273 486.402C496.05 486.597 495.89 486.855 495.813 487.141C495.71 487.526 495.764 487.935 495.963 488.28C496.162 488.624 496.49 488.876 496.874 488.979Z" fill="white"/>
    <path fill-rule="evenodd" clip-rule="evenodd" d="M314.52 456.681C315.093 456.835 315.699 456.815 316.26 456.624C316.822 456.433 317.315 456.08 317.676 455.61C318.037 455.139 318.251 454.572 318.29 453.98C318.328 453.388 318.191 452.797 317.894 452.283C317.598 451.77 317.155 451.355 316.623 451.093C316.091 450.83 315.493 450.732 314.905 450.809C314.316 450.887 313.764 451.137 313.318 451.528C312.872 451.919 312.552 452.434 312.398 453.007C312.192 453.776 312.3 454.594 312.698 455.283C313.096 455.973 313.751 456.475 314.52 456.681Z" fill="white"/>
    <path d="M195.284 615.305C194.422 615.803 193.32 615.507 192.822 614.645C192.325 613.783 192.62 612.681 193.482 612.183C194.344 611.686 195.446 611.981 195.944 612.843C196.442 613.705 196.146 614.807 195.284 615.305Z" fill="white"/>
    <path fill-rule="evenodd" clip-rule="evenodd" d="M205.673 511.373C206.053 511.471 206.453 511.456 206.824 511.328C207.196 511.2 207.521 510.965 207.76 510.654C207.999 510.342 208.141 509.967 208.168 509.576C208.195 509.184 208.107 508.793 207.913 508.451C207.72 508.11 207.43 507.833 207.08 507.654C206.73 507.476 206.336 507.405 205.946 507.45C205.556 507.494 205.187 507.653 204.887 507.905C204.586 508.158 204.366 508.493 204.255 508.87C204.179 509.127 204.155 509.397 204.186 509.664C204.216 509.931 204.3 510.189 204.433 510.422C204.565 510.656 204.743 510.86 204.956 511.024C205.169 511.187 205.413 511.306 205.673 511.373Z" fill="white"/>
    <path fill-rule="evenodd" clip-rule="evenodd" d="M246.178 524.297C246.464 524.377 246.775 524.342 247.071 524.196C247.367 524.05 247.635 523.8 247.842 523.477C248.048 523.154 248.182 522.773 248.228 522.383C248.275 521.992 248.23 521.61 248.101 521.284C247.972 520.958 247.763 520.703 247.502 520.552C247.241 520.401 246.939 520.36 246.635 520.434C246.33 520.509 246.037 520.696 245.792 520.971C245.547 521.246 245.361 521.597 245.259 521.98C245.189 522.233 245.158 522.493 245.167 522.747C245.176 523 245.224 523.241 245.309 523.457C245.395 523.672 245.516 523.857 245.665 524.002C245.814 524.146 245.988 524.246 246.178 524.297Z" fill="white"/>
    <path fill-rule="evenodd" clip-rule="evenodd" d="M229.612 543.67C229.898 543.746 230.209 543.708 230.504 543.56C230.799 543.411 231.066 543.159 231.27 542.836C231.474 542.512 231.607 542.131 231.652 541.742C231.696 541.352 231.65 540.971 231.52 540.646C231.39 540.322 231.181 540.069 230.92 539.919C230.659 539.769 230.357 539.729 230.053 539.804C229.749 539.88 229.457 540.067 229.212 540.342C228.968 540.617 228.783 540.967 228.681 541.35C228.543 541.862 228.564 542.394 228.739 542.829C228.914 543.264 229.228 543.567 229.612 543.67Z" fill="white"/>
    <path fill-rule="evenodd" clip-rule="evenodd" d="M181.111 701.494C181.397 701.571 181.708 701.533 182.003 701.384C182.298 701.236 182.565 700.984 182.769 700.66C182.973 700.337 183.106 699.956 183.151 699.566C183.195 699.177 183.149 698.796 183.019 698.471C182.889 698.147 182.68 697.893 182.419 697.744C182.158 697.594 181.856 697.554 181.552 697.629C181.248 697.704 180.956 697.891 180.711 698.166C180.467 698.442 180.282 698.792 180.18 699.174C180.042 699.687 180.063 700.219 180.238 700.654C180.413 701.089 180.727 701.391 181.111 701.494Z" fill="white"/>
    <path fill-rule="evenodd" clip-rule="evenodd" d="M228.297 593.01C228.489 593.062 228.691 593.055 228.879 592.991C229.067 592.927 229.232 592.808 229.352 592.65C229.472 592.492 229.542 592.302 229.554 592.103C229.566 591.905 229.518 591.708 229.417 591.537C229.317 591.366 229.167 591.229 228.988 591.143C228.809 591.057 228.609 591.026 228.413 591.055C228.216 591.083 228.033 591.169 227.885 591.303C227.738 591.436 227.634 591.61 227.586 591.802C227.522 592.057 227.561 592.326 227.694 592.552C227.827 592.778 228.044 592.943 228.297 593.01Z" fill="white"/>
    <path d="M837.431 792.462C837.288 792.996 836.739 793.312 836.206 793.169C835.673 793.026 835.356 792.478 835.499 791.944C835.642 791.411 836.19 791.094 836.724 791.237C837.257 791.38 837.574 791.929 837.431 792.462Z" fill="white"/>
    <path fill-rule="evenodd" clip-rule="evenodd" d="M91.2719 590.459C91.4635 590.513 91.667 590.51 91.8564 590.448C92.0459 590.386 92.2126 590.27 92.3352 590.113C92.4578 589.956 92.5307 589.765 92.5445 589.567C92.5584 589.368 92.5126 589.17 92.413 588.997C92.3134 588.825 92.1645 588.686 91.9854 588.598C91.8064 588.511 91.6054 588.479 91.4081 588.507C91.2108 588.535 91.0263 588.62 90.8782 588.754C90.7301 588.887 90.6251 589.061 90.5768 589.255C90.5093 589.506 90.5447 589.775 90.6751 590.001C90.8055 590.226 91.0201 590.391 91.2719 590.459Z" fill="white"/>
    <path d="M218.186 429.833C218.043 430.367 217.494 430.683 216.961 430.54C216.427 430.398 216.111 429.849 216.254 429.316C216.397 428.782 216.945 428.466 217.479 428.609C218.012 428.752 218.329 429.3 218.186 429.833Z" fill="white"/>
    <path d="M187.332 374.979C187.189 375.512 186.641 375.829 186.107 375.686C185.574 375.543 185.257 374.994 185.4 374.461C185.543 373.928 186.092 373.611 186.625 373.754C187.159 373.897 187.475 374.445 187.332 374.979Z" fill="white"/>
    <path fill-rule="evenodd" clip-rule="evenodd" d="M156.006 391.432C156.197 391.483 156.391 391.505 156.564 391.494C156.737 391.483 156.881 391.441 156.978 391.373C157.075 391.304 157.12 391.212 157.108 391.108C157.096 391.005 157.027 390.894 156.91 390.79C156.793 390.686 156.633 390.594 156.451 390.525C156.268 390.457 156.072 390.414 155.885 390.403C155.699 390.393 155.532 390.414 155.404 390.465C155.277 390.516 155.195 390.594 155.169 390.69C155.152 390.753 155.161 390.823 155.193 390.894C155.226 390.966 155.283 391.038 155.361 391.107C155.438 391.176 155.535 391.24 155.646 391.296C155.757 391.351 155.879 391.398 156.006 391.432Z" fill="white"/>
    <path fill-rule="evenodd" clip-rule="evenodd" d="M160.921 402.066C161.017 402.092 161.118 402.088 161.212 402.057C161.305 402.025 161.387 401.966 161.447 401.887C161.508 401.809 161.543 401.714 161.55 401.616C161.556 401.517 161.533 401.419 161.484 401.333C161.434 401.247 161.361 401.178 161.272 401.135C161.183 401.091 161.084 401.074 160.986 401.087C160.888 401.1 160.796 401.142 160.721 401.207C160.647 401.272 160.593 401.358 160.568 401.454C160.534 401.582 160.552 401.718 160.618 401.833C160.684 401.948 160.793 402.032 160.921 402.066Z" fill="white"/>
    <path fill-rule="evenodd" clip-rule="evenodd" d="M217.893 533.282C217.988 533.311 218.096 533.283 218.205 533.2C218.313 533.117 218.416 532.985 218.501 532.819C218.586 532.653 218.649 532.461 218.682 532.268C218.715 532.074 218.716 531.889 218.686 531.734C218.655 531.579 218.594 531.462 218.511 531.399C218.427 531.335 218.325 531.327 218.216 531.376C218.108 531.425 217.999 531.528 217.903 531.673C217.807 531.818 217.728 531.997 217.677 532.189C217.642 532.315 217.62 532.443 217.612 532.567C217.604 532.69 217.61 532.806 217.63 532.908C217.65 533.009 217.684 533.095 217.729 533.159C217.774 533.224 217.83 533.265 217.893 533.282Z" fill="white"/>
    <path d="M189.131 532.13C188.269 532.628 187.167 532.333 186.669 531.471C186.171 530.609 186.467 529.506 187.329 529.009C188.191 528.511 189.293 528.806 189.791 529.668C190.288 530.53 189.993 531.633 189.131 532.13Z" fill="white"/>
    <path fill-rule="evenodd" clip-rule="evenodd" d="M97.8111 548.729C98.0976 548.806 98.4081 548.768 98.7033 548.62C98.9984 548.471 99.265 548.219 99.4692 547.896C99.6735 547.572 99.8062 547.191 99.8508 546.801C99.8953 546.412 99.8495 546.031 99.7193 545.706C99.589 545.382 99.3802 545.128 99.1191 544.979C98.858 544.829 98.5565 544.789 98.2525 544.864C97.9486 544.94 97.656 545.127 97.4116 545.402C97.1673 545.677 96.9822 546.027 96.8798 546.409C96.7425 546.922 96.7636 547.454 96.9382 547.889C97.1128 548.324 97.4268 548.627 97.8111 548.729Z" fill="white"/>
    <path fill-rule="evenodd" clip-rule="evenodd" d="M207.628 451.851C207.914 451.928 208.225 451.889 208.52 451.741C208.815 451.593 209.081 451.341 209.286 451.017C209.49 450.693 209.623 450.313 209.667 449.923C209.712 449.533 209.666 449.152 209.536 448.827C209.405 448.503 209.197 448.25 208.935 448.1C208.674 447.95 208.373 447.91 208.069 447.986C207.765 448.061 207.472 448.248 207.228 448.523C206.984 448.798 206.799 449.149 206.696 449.531C206.559 450.043 206.58 450.575 206.755 451.011C206.929 451.446 207.243 451.748 207.628 451.851Z" fill="white"/>
    <path fill-rule="evenodd" clip-rule="evenodd" d="M108.693 434.659C108.98 434.739 109.291 434.704 109.587 434.558C109.883 434.412 110.151 434.162 110.357 433.839C110.563 433.516 110.698 433.135 110.744 432.745C110.79 432.354 110.746 431.972 110.617 431.646C110.487 431.32 110.279 431.065 110.018 430.914C109.757 430.763 109.455 430.722 109.15 430.796C108.846 430.871 108.552 431.058 108.308 431.333C108.063 431.608 107.877 431.959 107.774 432.342C107.705 432.595 107.674 432.855 107.682 433.109C107.691 433.362 107.74 433.603 107.825 433.819C107.91 434.034 108.031 434.219 108.18 434.364C108.329 434.508 108.504 434.608 108.693 434.659Z" fill="white"/>
    <path fill-rule="evenodd" clip-rule="evenodd" d="M131.236 406.535C131.618 406.64 132.015 406.658 132.377 406.586C132.739 406.514 133.05 406.355 133.27 406.131C133.489 405.906 133.608 405.625 133.611 405.324C133.614 405.022 133.5 404.714 133.285 404.438C133.071 404.162 132.764 403.931 132.404 403.773C132.044 403.616 131.647 403.539 131.264 403.554C130.881 403.568 130.528 403.673 130.251 403.854C129.974 404.036 129.785 404.286 129.709 404.573C129.656 404.762 129.653 404.963 129.701 405.164C129.75 405.366 129.847 405.563 129.989 405.746C130.131 405.928 130.315 406.092 130.529 406.227C130.742 406.363 130.983 406.467 131.236 406.535Z" fill="white"/>
    <path fill-rule="evenodd" clip-rule="evenodd" d="M97.2984 492.687C97.5849 492.764 97.8954 492.726 98.1906 492.577C98.4857 492.429 98.7523 492.177 98.9565 491.853C99.1608 491.53 99.2936 491.149 99.3381 490.759C99.3826 490.37 99.3368 489.988 99.2066 489.664C99.0763 489.339 98.8675 489.086 98.6064 488.936C98.3453 488.787 98.0437 488.747 97.7397 488.822C97.4358 488.897 97.1432 489.084 96.8989 489.359C96.6545 489.634 96.4695 489.985 96.3671 490.367C96.2298 490.88 96.2508 491.412 96.4254 491.847C96.6001 492.282 96.9141 492.584 97.2984 492.687Z" fill="white"/>
  </symbol>
</svg>